<svg width="18" height="18" viewBox="0 0 18 18" fill="none" xmlns="http://www.w3.org/2000/svg">
<path d="M9.00001 0.6C6.77219 0.6 4.63561 1.485 3.06031 3.0603C1.485 4.63561 0.600006 6.77218 0.600006 9C0.600006 11.2278 1.485 13.3644 3.06031 14.9397C4.63561 16.515 6.77219 17.4 9.00001 17.4C11.2278 17.4 13.3644 16.515 14.9397 14.9397C16.515 13.3644 17.4 11.2278 17.4 9C17.4 6.77218 16.515 4.63561 14.9397 3.0603C13.3644 1.485 11.2278 0.6 9.00001 0.6ZM13.789 12.061L12.06 13.79L9.00001 10.729L5.93901 13.789L4.21001 12.06L7.27201 9L4.21101 5.939L5.94001 4.211L9.00001 7.271L12.061 4.21L13.79 5.939L10.728 9L13.789 12.061Z" fill="white"/>
</svg>
