<svg width="18" height="18" viewBox="0 0 18 18" fill="none" xmlns="http://www.w3.org/2000/svg">
<path d="M17.132 2.99004C17.2753 2.85174 17.3897 2.68628 17.4684 2.50331C17.5471 2.32034 17.5885 2.12353 17.5904 1.92436C17.5922 1.72519 17.5543 1.52766 17.479 1.34328C17.4037 1.1589 17.2924 0.991369 17.1516 0.850465C17.0108 0.70956 16.8434 0.598102 16.6591 0.522593C16.4748 0.447085 16.2773 0.40904 16.0781 0.410676C15.8789 0.412312 15.6821 0.453597 15.499 0.532123C15.316 0.610649 15.1504 0.724843 15.012 0.868042L9 6.87804L2.98999 0.868042C2.85267 0.720668 2.68707 0.602464 2.50307 0.52048C2.31907 0.438496 2.12045 0.394412 1.91904 0.390858C1.71763 0.387305 1.51758 0.424355 1.3308 0.499797C1.14402 0.575239 0.974356 0.687528 0.831919 0.829965C0.689481 0.972403 0.577192 1.14207 0.50175 1.32885C0.426308 1.51562 0.389258 1.71568 0.392812 1.91709C0.396365 2.11849 0.440449 2.31712 0.522433 2.50112C0.604417 2.68512 0.722621 2.85072 0.869995 2.98804L6.87599 9.00004L0.865995 15.01C0.601035 15.2944 0.456788 15.6705 0.463645 16.0591C0.470501 16.4477 0.627926 16.8185 0.902752 17.0933C1.17758 17.3681 1.54835 17.5255 1.93695 17.5324C2.32555 17.5392 2.70165 17.395 2.986 17.13L9 11.12L15.01 17.132C15.2943 17.397 15.6704 17.5413 16.059 17.5344C16.4476 17.5275 16.8184 17.3701 17.0932 17.0953C17.3681 16.8205 17.5255 16.4497 17.5323 16.0611C17.5392 15.6725 17.395 15.2964 17.13 15.012L11.124 9.00004L17.132 2.99004Z" fill="white"/>
</svg>
