<svg width="25" height="25" viewBox="0 0 25 25" fill="none" xmlns="http://www.w3.org/2000/svg">
<path d="M6.52085 22.2793H6.25002C5.26773 22.2793 4.7771 22.2793 4.4719 21.9741C4.16669 21.671 4.16669 21.1793 4.16669 20.197V19.0387C4.16669 18.4991 4.16669 18.2293 4.30523 17.9877C4.44377 17.746 4.65315 17.6252 5.0719 17.3814C7.82815 15.7783 11.7417 14.8762 14.3531 16.4335C14.5288 16.5384 14.6851 16.6661 14.8219 16.8168C14.9621 16.97 15.0701 17.1498 15.1395 17.3455C15.2089 17.5411 15.2384 17.7488 15.2262 17.956C15.2139 18.1633 15.1602 18.366 15.0683 18.5522C14.9763 18.7383 14.8479 18.9041 14.6906 19.0397C14.5654 19.1587 14.4125 19.2446 14.2459 19.2897C14.3709 19.2752 14.4906 19.2588 14.6052 19.2408C15.5542 19.0897 16.3511 18.5814 17.0802 18.0304L18.9636 16.6085C19.2997 16.3646 19.7045 16.2332 20.1198 16.2332C20.5352 16.2332 20.9399 16.3646 21.2761 16.6085C21.8729 17.0595 22.0563 17.8022 21.6781 18.4085C21.2375 19.1147 20.6167 20.0179 20.0209 20.57C19.425 21.122 18.5354 21.6158 17.8104 21.9658C17.0063 22.3543 16.1188 22.5772 15.2156 22.7241C13.3844 23.02 11.4761 22.9741 9.66356 22.6012C8.62952 22.3884 7.57657 22.2798 6.52085 22.2793ZM6.86044 2.69391C6.47815 3.0762 6.33544 3.60329 6.28231 4.42725C6.89293 4.41889 7.47617 4.17253 7.90788 3.74062C8.33959 3.30872 8.58569 2.72536 8.59377 2.11475C7.77085 2.16891 7.24273 2.31162 6.86044 2.69391ZM18.1396 2.69391C17.7573 2.31162 17.2302 2.16891 16.4063 2.11579C16.4146 2.7264 16.661 3.30964 17.0929 3.74136C17.5248 4.17307 18.1082 4.41916 18.7188 4.42725C18.6646 3.60433 18.5219 3.0762 18.1396 2.69391ZM18.1396 9.80641C17.7573 10.1887 17.2302 10.3314 16.4063 10.3845C16.4146 9.77392 16.661 9.19068 17.0929 8.75897C17.5248 8.32726 18.1082 8.08116 18.7188 8.07308C18.6646 8.896 18.5219 9.42412 18.1396 9.80641ZM6.86044 9.80641C7.24273 10.1887 7.76981 10.3314 8.59377 10.3845C8.58541 9.77392 8.33906 9.19068 7.90715 8.75897C7.47524 8.32726 6.89189 8.08116 6.28127 8.07308C6.33544 8.896 6.47815 9.42412 6.86044 9.80641Z" fill="white"/>
<path fill-rule="evenodd" clip-rule="evenodd" d="M6.25 5.98975C7.286 5.98975 8.27957 5.5782 9.01214 4.84563C9.7447 4.11307 10.1562 3.1195 10.1562 2.0835H14.8438C14.8438 3.1195 15.2553 4.11307 15.9879 4.84563C16.7204 5.5782 17.714 5.98975 18.75 5.98975V6.51058C17.714 6.51058 16.7204 6.92213 15.9879 7.65469C15.2553 8.38726 14.8438 9.38083 14.8438 10.4168H10.1562C10.1562 9.38083 9.7447 8.38726 9.01214 7.65469C8.27957 6.92213 7.286 6.51058 6.25 6.51058V5.98975ZM12.5 7.29183C12.7763 7.29183 13.0412 7.18208 13.2366 6.98673C13.4319 6.79138 13.5417 6.52643 13.5417 6.25016C13.5417 5.9739 13.4319 5.70894 13.2366 5.51359C13.0412 5.31824 12.7763 5.2085 12.5 5.2085C12.2237 5.2085 11.9588 5.31824 11.7634 5.51359C11.5681 5.70894 11.4583 5.9739 11.4583 6.25016C11.4583 6.52643 11.5681 6.79138 11.7634 6.98673C11.9588 7.18208 12.2237 7.29183 12.5 7.29183Z" fill="white"/>
</svg>
