<svg width="44" height="44" viewBox="0 0 44 44" fill="none" xmlns="http://www.w3.org/2000/svg">
<rect width="44" height="44" rx="10" fill="#D9D9D9"/>
<rect width="44" height="44" rx="10" fill="url(#paint0_linear_793_756)"/>
<path d="M31.5 23.5802H23.5833V31.4969C23.5833 31.9168 23.4165 32.3196 23.1196 32.6165C22.8226 32.9134 22.4199 33.0802 22 33.0802C21.5801 33.0802 21.1773 32.9134 20.8804 32.6165C20.5835 32.3196 20.4167 31.9168 20.4167 31.4969V23.5802H12.5C12.0801 23.5802 11.6773 23.4134 11.3804 23.1165C11.0835 22.8196 10.9167 22.4168 10.9167 21.9969C10.9167 21.577 11.0835 21.1743 11.3804 20.8773C11.6773 20.5804 12.0801 20.4136 12.5 20.4136H20.4167V12.4969C20.4167 12.077 20.5835 11.6743 20.8804 11.3773C21.1773 11.0804 21.5801 10.9136 22 10.9136C22.4199 10.9136 22.8226 11.0804 23.1196 11.3773C23.4165 11.6743 23.5833 12.077 23.5833 12.4969V20.4136H31.5C31.9199 20.4136 32.3226 20.5804 32.6196 20.8773C32.9165 21.1743 33.0833 21.577 33.0833 21.9969C33.0833 22.4168 32.9165 22.8196 32.6196 23.1165C32.3226 23.4134 31.9199 23.5802 31.5 23.5802Z" fill="white"/>
<defs>
<linearGradient id="paint0_linear_793_756" x1="22" y1="0" x2="22" y2="44" gradientUnits="userSpaceOnUse">
<stop stop-color="#8B7DFF"/>
<stop offset="1" stop-color="#4F42BD"/>
</linearGradient>
</defs>
</svg>
