<svg width="25" height="25" viewBox="0 0 25 25" fill="none" xmlns="http://www.w3.org/2000/svg">
<path d="M18.75 15.625V18.75M18.75 18.75V21.875M18.75 18.75H15.625M18.75 18.75H21.875" stroke="white" stroke-width="3" stroke-linecap="round" stroke-linejoin="round"/>
<path fill-rule="evenodd" clip-rule="evenodd" d="M5.20834 5.2085C4.37954 5.2085 3.58469 5.53774 2.99863 6.12379C2.41258 6.70984 2.08334 7.50469 2.08334 8.3335V16.6668C2.08334 17.4956 2.41258 18.2905 2.99863 18.8765C3.58469 19.4626 4.37954 19.7918 5.20834 19.7918H12.5865C12.5286 19.4476 12.4997 19.0992 12.5 18.7502C12.5 17.5543 12.8354 16.4377 13.4177 15.4887C12.9503 15.6323 12.4556 15.6642 11.9736 15.5818C11.4916 15.4995 11.0356 15.3051 10.6424 15.0144C10.2491 14.7237 9.92959 14.3448 9.70948 13.9081C9.48936 13.4714 9.3748 12.9892 9.37501 12.5002C9.37564 12.0509 9.47311 11.6071 9.66078 11.199C9.84846 10.7908 10.1219 10.4279 10.4625 10.135C10.8032 9.84215 11.2029 9.62614 11.6346 9.50173C12.0662 9.37733 12.5197 9.34745 12.9639 9.41413C13.4082 9.48082 13.8328 9.64251 14.2089 9.88817C14.585 10.1338 14.9037 10.4577 15.1434 10.8377C15.383 11.2177 15.5378 11.6449 15.5974 12.0901C15.657 12.5354 15.6199 12.9883 15.4886 13.4179C16.4698 12.816 17.5989 12.4983 18.75 12.5002C20.3511 12.5002 21.8115 13.1022 22.9167 14.0918V8.3335C22.9167 7.50469 22.5874 6.70984 22.0014 6.12379C21.4153 5.53774 20.6205 5.2085 19.7917 5.2085H5.20834ZM12.5 11.4585C12.2237 11.4585 11.9588 11.5682 11.7634 11.7636C11.5681 11.9589 11.4583 12.2239 11.4583 12.5002C11.4583 12.7764 11.5681 13.0414 11.7634 13.2367C11.9588 13.4321 12.2237 13.5418 12.5 13.5418C12.7763 13.5418 13.0412 13.4321 13.2366 13.2367C13.4319 13.0414 13.5417 12.7764 13.5417 12.5002C13.5417 12.2239 13.4319 11.9589 13.2366 11.7636C13.0412 11.5682 12.7763 11.4585 12.5 11.4585Z" fill="white"/>
</svg>
