<svg width="64" height="64" viewBox="0 0 64 64" fill="none" xmlns="http://www.w3.org/2000/svg">
<circle cx="32" cy="32" r="32" fill="url(#paint0_linear_402_974)"/>
<path d="M44 33.9961H34V43.9961C34 44.5265 33.7893 45.0352 33.4142 45.4103C33.0391 45.7854 32.5304 45.9961 32 45.9961C31.4696 45.9961 30.9609 45.7854 30.5858 45.4103C30.2107 45.0352 30 44.5265 30 43.9961V33.9961H20C19.4696 33.9961 18.9609 33.7854 18.5858 33.4103C18.2107 33.0352 18 32.5265 18 31.9961C18 31.4657 18.2107 30.957 18.5858 30.5819C18.9609 30.2068 19.4696 29.9961 20 29.9961H30V19.9961C30 19.4657 30.2107 18.957 30.5858 18.5819C30.9609 18.2068 31.4696 17.9961 32 17.9961C32.5304 17.9961 33.0391 18.2068 33.4142 18.5819C33.7893 18.957 34 19.4657 34 19.9961V29.9961H44C44.5304 29.9961 45.0391 30.2068 45.4142 30.5819C45.7893 30.957 46 31.4657 46 31.9961C46 32.5265 45.7893 33.0352 45.4142 33.4103C45.0391 33.7854 44.5304 33.9961 44 33.9961Z" fill="white"/>
<defs>
<linearGradient id="paint0_linear_402_974" x1="32" y1="0" x2="32" y2="64" gradientUnits="userSpaceOnUse">
<stop stop-color="#8B7DFF"/>
<stop offset="1" stop-color="#4F42BD"/>
</linearGradient>
</defs>
</svg>
