<svg width="25" height="25" viewBox="0 0 25 25" fill="none" xmlns="http://www.w3.org/2000/svg">
<path fill-rule="evenodd" clip-rule="evenodd" d="M14.8739 2.24183C14.4885 2.0835 13.9989 2.0835 13.0208 2.0835C12.0427 2.0835 11.5541 2.0835 11.1677 2.24183C10.9134 2.34573 10.6822 2.49889 10.4873 2.6925C10.2924 2.88611 10.1378 3.11635 10.0323 3.36995C9.93434 3.60225 9.89684 3.87412 9.88121 4.26891C9.87378 4.55485 9.79378 4.83421 9.64874 5.08074C9.5037 5.32728 9.29837 5.5329 9.05205 5.67829C8.80074 5.81798 8.51824 5.89198 8.23072 5.89344C7.9432 5.89489 7.65997 5.82376 7.40725 5.68662C7.05517 5.5012 6.79996 5.39912 6.54788 5.36579C5.9964 5.29383 5.43878 5.44203 4.9958 5.77829C4.66455 6.03037 4.41975 6.4512 3.93121 7.29183C3.44163 8.13245 3.19788 8.55225 3.14267 8.9637C3.06975 9.51162 3.21975 10.0658 3.55934 10.5043C3.7135 10.7043 3.93121 10.872 4.26767 11.0825C4.76455 11.3918 5.0833 11.9189 5.0833 12.5002C5.0833 13.0814 4.76455 13.6085 4.26871 13.9168C3.93121 14.1283 3.7135 14.296 3.5583 14.496C3.39118 14.7129 3.26845 14.9606 3.19714 15.2249C3.12582 15.4893 3.10731 15.7651 3.14267 16.0366C3.19788 16.447 3.44163 16.8679 3.93121 17.7085C4.4208 18.5491 4.66455 18.9689 4.9958 19.222C5.43746 19.5585 5.9958 19.7064 6.54788 19.6345C6.79996 19.6012 7.05517 19.4991 7.40725 19.3137C7.66009 19.1764 7.94352 19.1051 8.23124 19.1066C8.51896 19.1081 8.80165 19.1822 9.05309 19.322C9.55934 19.6137 9.85934 20.1502 9.88121 20.7314C9.89684 21.1272 9.93434 21.3981 10.0323 21.6304C10.2448 22.1408 10.6531 22.547 11.1677 22.7585C11.5531 22.9168 12.0427 22.9168 13.0208 22.9168C13.9989 22.9168 14.4885 22.9168 14.8739 22.7585C15.1282 22.6546 15.3594 22.5014 15.5543 22.3078C15.7492 22.1142 15.9038 21.884 16.0093 21.6304C16.1073 21.3981 16.1448 21.1272 16.1604 20.7314C16.1812 20.1502 16.4823 19.6127 16.9895 19.322C17.2409 19.1823 17.5234 19.1083 17.8109 19.1069C18.0984 19.1054 18.3816 19.1766 18.6343 19.3137C18.9864 19.4991 19.2416 19.6012 19.4937 19.6345C20.0458 19.7075 20.6041 19.5585 21.0458 19.222C21.377 18.97 21.6218 18.5491 22.1104 17.7085C22.6 16.8679 22.8437 16.4481 22.8989 16.0366C22.9341 15.765 22.9155 15.4892 22.844 15.2248C22.7725 14.9605 22.6496 14.7128 22.4823 14.496C22.3281 14.296 22.1104 14.1283 21.7739 13.9179C21.277 13.6085 20.9583 13.0814 20.9583 12.5002C20.9583 11.9189 21.277 11.3918 21.7729 11.0835C22.1104 10.872 22.3281 10.7043 22.4833 10.5043C22.6504 10.2874 22.7731 10.0397 22.8445 9.77539C22.9158 9.51103 22.9343 9.23522 22.8989 8.9637C22.8437 8.55329 22.6 8.13245 22.1104 7.29183C21.6208 6.4512 21.377 6.03141 21.0458 5.77829C20.6028 5.44203 20.0452 5.29383 19.4937 5.36579C19.2416 5.39912 18.9864 5.5012 18.6343 5.68662C18.3815 5.82394 18.0981 5.89518 17.8104 5.89372C17.5226 5.89227 17.2399 5.81816 16.9885 5.67829C16.7424 5.53277 16.5373 5.32709 16.3924 5.08057C16.2475 4.83404 16.1677 4.55475 16.1604 4.26891C16.1448 3.87308 16.1073 3.60225 16.0093 3.36995C15.9038 3.11635 15.7492 2.88611 15.5543 2.6925C15.3594 2.49889 15.1282 2.34573 14.8739 2.24183ZM13.0208 15.6252C14.7604 15.6252 16.1698 14.2262 16.1698 12.5002C16.1698 10.7741 14.7593 9.37516 13.0208 9.37516C11.2823 9.37516 9.87184 10.7741 9.87184 12.5002C9.87184 14.2262 11.2823 15.6252 13.0208 15.6252Z" fill="white"/>
</svg>
