<svg width="25" height="25" viewBox="0 0 25 25" fill="none" xmlns="http://www.w3.org/2000/svg">
<path fill-rule="evenodd" clip-rule="evenodd" d="M14.874 2.24183C14.4885 2.0835 13.999 2.0835 13.0208 2.0835C12.0427 2.0835 11.5542 2.0835 11.1677 2.24183C10.9134 2.34573 10.6822 2.49889 10.4873 2.6925C10.2925 2.88611 10.1378 3.11635 10.0323 3.36995C9.93437 3.60225 9.89687 3.87412 9.88124 4.26891C9.87381 4.55485 9.79381 4.83421 9.64877 5.08074C9.50373 5.32728 9.2984 5.5329 9.05208 5.67829C8.80077 5.81798 8.51827 5.89198 8.23075 5.89344C7.94323 5.89489 7.66 5.82376 7.40729 5.68662C7.0552 5.5012 6.79999 5.39912 6.54791 5.36579C5.99643 5.29383 5.43881 5.44203 4.99583 5.77829C4.66458 6.03037 4.41978 6.4512 3.93124 7.29183C3.44166 8.13245 3.19791 8.55225 3.1427 8.9637C3.06978 9.51162 3.21978 10.0658 3.55937 10.5043C3.71353 10.7043 3.93124 10.872 4.2677 11.0825C4.76458 11.3918 5.08333 11.9189 5.08333 12.5002C5.08333 13.0814 4.76458 13.6085 4.26874 13.9168C3.93124 14.1283 3.71353 14.296 3.55833 14.496C3.39121 14.7129 3.26848 14.9606 3.19717 15.2249C3.12585 15.4893 3.10734 15.7651 3.1427 16.0366C3.19791 16.447 3.44166 16.8679 3.93124 17.7085C4.42083 18.5491 4.66458 18.9689 4.99583 19.222C5.43749 19.5585 5.99583 19.7064 6.54791 19.6345C6.79999 19.6012 7.0552 19.4991 7.40729 19.3137C7.66012 19.1764 7.94355 19.1051 8.23127 19.1066C8.51899 19.1081 8.80168 19.1822 9.05312 19.322C9.55937 19.6137 9.85937 20.1502 9.88124 20.7314C9.89687 21.1272 9.93437 21.3981 10.0323 21.6304C10.2448 22.1408 10.6531 22.547 11.1677 22.7585C11.5531 22.9168 12.0427 22.9168 13.0208 22.9168C13.999 22.9168 14.4885 22.9168 14.874 22.7585C15.1282 22.6546 15.3595 22.5014 15.5543 22.3078C15.7492 22.1142 15.9038 21.884 16.0094 21.6304C16.1073 21.3981 16.1448 21.1272 16.1604 20.7314C16.1812 20.1502 16.4823 19.6127 16.9896 19.322C17.2409 19.1823 17.5234 19.1083 17.8109 19.1069C18.0984 19.1054 18.3817 19.1766 18.6344 19.3137C18.9865 19.4991 19.2417 19.6012 19.4937 19.6345C20.0458 19.7075 20.6042 19.5585 21.0458 19.222C21.3771 18.97 21.6219 18.5491 22.1104 17.7085C22.6 16.8679 22.8437 16.4481 22.899 16.0366C22.9342 15.765 22.9155 15.4892 22.844 15.2248C22.7725 14.9605 22.6496 14.7128 22.4823 14.496C22.3281 14.296 22.1104 14.1283 21.774 13.9179C21.2771 13.6085 20.9583 13.0814 20.9583 12.5002C20.9583 11.9189 21.2771 11.3918 21.7729 11.0835C22.1104 10.872 22.3281 10.7043 22.4833 10.5043C22.6504 10.2874 22.7732 10.0397 22.8445 9.77539C22.9158 9.51103 22.9343 9.23522 22.899 8.9637C22.8437 8.55329 22.6 8.13245 22.1104 7.29183C21.6208 6.4512 21.3771 6.03141 21.0458 5.77829C20.6028 5.44203 20.0452 5.29383 19.4937 5.36579C19.2417 5.39912 18.9865 5.5012 18.6344 5.68662C18.3815 5.82394 18.0981 5.89518 17.8104 5.89372C17.5227 5.89227 17.24 5.81816 16.9885 5.67829C16.7424 5.53277 16.5373 5.32709 16.3924 5.08057C16.2476 4.83404 16.1677 4.55475 16.1604 4.26891C16.1448 3.87308 16.1073 3.60225 16.0094 3.36995C15.9038 3.11635 15.7492 2.88611 15.5543 2.6925C15.3595 2.49889 15.1282 2.34573 14.874 2.24183ZM13.0208 15.6252C14.7604 15.6252 16.1698 14.2262 16.1698 12.5002C16.1698 10.7741 14.7594 9.37516 13.0208 9.37516C11.2823 9.37516 9.87187 10.7741 9.87187 12.5002C9.87187 14.2262 11.2823 15.6252 13.0208 15.6252Z" fill="#7160FF"/>
</svg>
