<svg width="102" height="62" viewBox="0 0 102 62" fill="none" xmlns="http://www.w3.org/2000/svg">
<path d="M99.6385 53.7216C101.411 50.1857 101.808 46.7705 100.816 43.5592C99.2651 38.5382 94.8873 35.8765 93.5837 35.1824C91.75 34.2024 28.7251 0.966069 28.7251 0.966069C28.3121 0.748164 27.846 0.642618 27.3788 0.658032C23.0315 0.813493 3.5488 0.875532 3.35145 0.876162C2.35314 0.877409 1.43606 1.43481 0.971959 2.31291C0.640235 2.94451 0.580909 3.66744 0.78421 4.32572C0.864603 4.58603 0.985074 4.83396 1.14658 5.06373C1.26312 5.22788 12.8734 21.758 14.7114 24.5023C14.9546 24.8631 15.2828 25.162 15.6671 25.3669C18.1455 26.6934 76.4106 57.8519 80.4088 59.8797C84.5364 61.98 88.3207 62.4892 91.646 61.3964C94.9305 60.3135 97.6175 57.7317 99.6345 53.7173L99.6385 53.7216ZM85.3269 36.8578C85.4123 38.2269 85.3295 41.548 83.1771 45.5768C81.0022 49.6482 77.6794 51.5929 76.9115 52.0027C64.0735 45.1873 34.647 29.4602 23.0497 23.2596C24.7165 21.8428 26.6214 19.7932 28.1205 16.9805C29.952 13.5471 30.619 10.4212 30.8235 8.10714C42.3997 14.2129 72.6347 30.159 85.3236 36.856L85.3269 36.8578ZM25.549 6.01562C25.6085 7.50519 25.4285 10.689 23.3919 14.5066C21.8202 17.4485 19.6525 19.2778 18.2765 20.2236C16.0824 17.0903 11.0994 10.2836 8.04217 5.92804C13.209 5.9033 21.3113 6.05499 25.549 6.01562ZM82.8697 55.1443C82.7328 55.0741 82.5099 54.9565 82.2419 54.8172C84.0365 53.3966 86.2282 51.2008 87.91 48.0467C89.6289 44.8262 90.32 41.8848 90.568 39.6231C90.7884 39.7415 90.9614 39.8306 91.0277 39.8677C91.3988 40.0656 94.6892 41.898 95.6895 45.1369C96.2654 47.0016 95.9796 49.0968 94.841 51.3621C93.4898 54.0495 91.8569 55.7273 89.9841 56.344C88.0713 56.9732 85.6768 56.5667 82.8689 55.1418L82.8697 55.1443Z" fill="#8B7DFF"/>
</svg>
