<svg width="56" height="45" viewBox="0 0 56 45" fill="none" xmlns="http://www.w3.org/2000/svg">
<g id="Group 303">
<path id="Vector" d="M49.8792 10.4924C49.3713 9.71248 48.7455 9.01589 48.0319 8.39771C47.3185 7.78033 46.5179 7.23964 45.6509 6.76675L45.5978 6.73807L45.6494 6.76703C43.0459 5.35054 39.8087 4.50045 36.1787 4.15683L36.1779 4.15698C32.5457 3.81964 28.5085 4.00605 24.3245 4.78645C21.1363 5.38112 18.1532 6.26661 15.4682 7.3726C12.7831 8.47873 10.396 9.80528 8.40259 11.3002L8.4011 11.3013C6.41082 12.7991 4.79309 14.4724 3.7105 16.3472L3.72986 16.3116L3.70968 16.3474C3.16987 17.2859 2.76474 18.2806 2.54512 19.3212C2.32493 20.3629 2.29639 21.4468 2.49729 22.5199L4.06995 30.9515C4.26957 32.0257 4.6871 33.0272 5.26799 33.9195C5.77596 34.6994 6.40169 35.3951 7.11522 36.0134C7.82958 36.6314 8.62918 37.1714 9.49596 37.6444L9.49776 37.6449C12.101 39.0597 15.3378 39.9132 18.9675 40.2551L18.9868 40.2558C22.6148 40.5907 26.6452 40.4047 30.8229 39.6264L30.8237 39.6262C34.011 39.0309 36.9939 38.1454 39.6791 37.0394C42.3641 35.9333 44.7511 34.6059 46.7446 33.1117L46.7459 33.1099C48.7362 31.612 50.3529 29.9381 51.4366 28.0647L51.4372 28.063C51.9773 27.1261 52.3818 26.1325 52.6012 25.0909L52.5871 25.1548L52.602 25.0908C52.8214 24.0492 52.8499 22.9645 52.6496 21.8905L51.0769 13.4589C50.8767 12.3856 50.4593 11.3848 49.8792 10.4924Z" fill="#8B7DFF"/>
<g id="Vector_2">
<path d="M40.7797 12.7152C39.7918 11.9173 38.4761 11.2914 36.9157 10.8522L36.9174 10.8519C33.8047 9.97185 29.7362 9.83683 25.418 10.6397L25.406 10.6427L25.4058 10.642C22.5704 11.1716 19.9787 12.0404 17.8005 13.1249C15.6224 14.2095 13.8605 15.5051 12.6776 16.9009L12.6797 16.8989C11.8894 17.8303 11.3619 18.8034 11.1531 19.7934C11.0329 20.3556 11.0212 20.9268 11.126 21.4839C11.2115 21.9423 11.6523 22.2453 12.1113 22.1597C12.5703 22.0741 12.8721 21.6325 12.7866 21.1742C12.725 20.839 12.7288 20.5085 12.8055 20.1415C12.9377 19.5058 13.3119 18.7629 13.9665 17.9943L13.9685 17.9922C14.9412 16.8371 16.5321 15.6405 18.5535 14.6382C20.574 13.6309 23.0261 12.805 25.7159 12.3041L25.7596 12.296C29.8392 11.5359 33.6807 11.6865 36.4564 12.4783L36.459 12.4786C37.8507 12.8688 38.9719 13.4234 39.7185 14.0296C40.094 14.3332 40.379 14.6468 40.5827 14.9605C40.837 15.3521 41.3594 15.4629 41.7508 15.2085C42.1423 14.9542 42.2528 14.4316 41.9986 14.0401C41.6841 13.5563 41.2744 13.1131 40.7797 12.7152Z" fill="white"/>
<path d="M49.8792 10.4924C49.3713 9.71248 48.7455 9.01589 48.0319 8.39771C47.3185 7.78033 46.5179 7.23964 45.6509 6.76675L45.5978 6.73807L45.6494 6.76703C43.0459 5.35054 39.8087 4.50045 36.1787 4.15683L36.1779 4.15698C32.5457 3.81964 28.5085 4.00605 24.3245 4.78645C21.1363 5.38112 18.1532 6.26661 15.4682 7.3726C12.7831 8.47873 10.396 9.80528 8.40259 11.3002L8.4011 11.3013C6.41082 12.7991 4.79309 14.4724 3.7105 16.3472L3.72986 16.3116L3.70968 16.3474C3.16987 17.2859 2.76474 18.2806 2.54512 19.3212C2.32493 20.3629 2.29639 21.4468 2.49729 22.5199L4.06995 30.9515C4.26957 32.0257 4.6871 33.0272 5.26799 33.9195C5.77596 34.6994 6.40169 35.3951 7.11522 36.0134C7.82958 36.6314 8.62918 37.1714 9.49596 37.6444L9.49776 37.6449C12.101 39.0597 15.3378 39.9132 18.9675 40.2551L18.9868 40.2558C22.6148 40.5907 26.6452 40.4047 30.8229 39.6264L30.8237 39.6262C34.011 39.0309 36.9939 38.1454 39.6791 37.0394C42.3641 35.9333 44.7511 34.6059 46.7446 33.1117L46.7459 33.1099C48.7362 31.612 50.3529 29.9381 51.4366 28.0647L51.4372 28.063C51.9773 27.1261 52.3818 26.1325 52.6012 25.0909L52.5871 25.1548L52.602 25.0908C52.8214 24.0492 52.8499 22.9645 52.6496 21.8905L51.0769 13.4589C50.8767 12.3856 50.4593 11.3848 49.8792 10.4924ZM10.3242 34.3287C10.0239 34.1354 9.73975 33.9349 9.48123 33.7271C8.8675 33.2305 8.3769 32.6967 8.01121 32.1353C7.64524 31.5723 7.40429 30.9818 7.28673 30.3516L6.57378 26.5292C7.17927 27.045 7.86764 27.5101 8.6254 27.9245C8.80736 28.0223 8.99296 28.1179 9.18323 28.2117L10.3242 34.3287ZM15.5296 36.3974C15.1833 36.3176 14.8412 36.2335 14.5106 36.1392C13.7409 35.9218 13.0227 35.6704 12.3585 35.3924L11.1738 29.0408C12.1513 29.3831 13.2029 29.6679 14.3164 29.8933L15.5296 36.3974ZM21.6346 37.1313C20.1158 37.0947 18.6725 36.9635 17.3241 36.7475L17.4287 36.728L16.213 30.2102C16.6443 30.269 17.0849 30.3187 17.5324 30.3612C18.458 30.4471 19.4168 30.4948 20.3994 30.5089L21.6346 37.1313ZM29.333 36.5642C27.3161 36.8984 25.3505 37.0753 23.4694 37.1206L22.2323 30.4884C24.1218 30.4297 26.0843 30.2357 28.0903 29.902L29.333 36.5642ZM36.9934 34.557C35.1613 35.2252 33.1923 35.7973 31.1078 36.2281L29.8668 29.5747C31.9382 29.1463 33.913 28.5908 35.7581 27.9343L36.9934 34.557ZM42.487 32.0122C41.9034 32.3561 41.2908 32.6886 40.648 33.0082C40.0277 33.317 39.376 33.6106 38.7055 33.8934L37.4718 27.279C38.8228 26.7265 40.0916 26.1155 41.2647 25.4593L42.487 32.0122ZM46.7134 28.8281C45.9808 29.5608 45.1141 30.2765 44.1273 30.9641L42.9147 24.4633C43.3935 24.1514 43.855 23.832 44.2916 23.5047C44.7278 23.1757 45.1407 22.8393 45.5326 22.4975L46.7134 28.8281ZM49.4329 22.4903C49.5504 23.1206 49.5386 23.7584 49.3993 24.4154C49.222 25.2644 48.8243 26.1504 48.2161 27.042L47.0973 21.044L46.9919 21.0637C47.6233 20.3641 48.1642 19.6429 48.5935 18.8989C48.6372 18.8228 48.6783 18.7463 48.7201 18.6697L49.4329 22.4903ZM47.8264 15.9824C47.5871 17.1283 46.9488 18.3403 45.9312 19.5416C44.4086 21.3432 42.0407 23.1012 39.0751 24.5751C36.111 26.0513 32.5517 27.2483 28.65 27.976C22.7061 29.0873 17.1049 28.8871 12.9377 27.706C10.8547 27.1184 9.13566 26.2873 7.90814 25.2932C7.29455 24.7974 6.80395 24.2636 6.43828 23.7023C6.07228 23.1392 5.83149 22.5495 5.71409 21.9201C5.59668 21.2907 5.6087 20.6538 5.74712 19.9967C5.98801 18.8497 6.62451 17.638 7.64339 16.4382C9.16658 14.6355 11.5336 12.877 14.4991 11.4031C17.4636 9.9277 21.0237 8.73135 24.9247 8.00374C30.8685 6.89169 36.4688 7.09287 40.636 8.27312C42.7197 8.85987 44.4398 9.6924 45.6654 10.685C46.2797 11.1808 46.7703 11.7146 47.1353 12.2768C47.5021 12.8397 47.7429 13.4293 47.8603 14.0588C47.9778 14.6884 47.9656 15.3251 47.8264 15.9824Z" fill="white"/>
</g>
</g>
</svg>
