<svg width="25" height="25" viewBox="0 0 25 25" fill="none" xmlns="http://www.w3.org/2000/svg">
<mask id="mask0_3_114" style="mask-type:luminance" maskUnits="userSpaceOnUse" x="2" y="4" width="21" height="17">
<path d="M14.5834 4.16669H10.4167C6.4886 4.16669 4.52402 4.16669 3.30422 5.38752C2.42506 6.26565 2.17922 7.53023 2.11047 9.63544H22.8896C22.8209 7.53023 22.5751 6.26565 21.6959 5.38752C20.4761 4.16669 18.5115 4.16669 14.5834 4.16669ZM10.4167 20.8334H14.5834C18.5115 20.8334 20.4761 20.8334 21.6959 19.6125C22.9157 18.3917 22.9167 16.4281 22.9167 12.5C22.9167 12.0403 22.916 11.6063 22.9146 11.1979H2.08547C2.08339 11.6063 2.0827 12.0403 2.08339 12.5C2.08339 16.4281 2.08339 18.3927 3.30422 19.6125C4.52506 20.8323 6.4886 20.8334 10.4167 20.8334Z" fill="white"/>
<path fill-rule="evenodd" clip-rule="evenodd" d="M5.46875 16.6667C5.46875 16.4595 5.55106 16.2608 5.69757 16.1143C5.84409 15.9677 6.0428 15.8854 6.25 15.8854H10.4167C10.6239 15.8854 10.8226 15.9677 10.9691 16.1143C11.1156 16.2608 11.1979 16.4595 11.1979 16.6667C11.1979 16.8739 11.1156 17.0726 10.9691 17.2191C10.8226 17.3656 10.6239 17.4479 10.4167 17.4479H6.25C6.0428 17.4479 5.84409 17.3656 5.69757 17.2191C5.55106 17.0726 5.46875 16.8739 5.46875 16.6667ZM12.2396 16.6667C12.2396 16.4595 12.3219 16.2608 12.4684 16.1143C12.6149 15.9677 12.8136 15.8854 13.0208 15.8854H14.5833C14.7905 15.8854 14.9892 15.9677 15.1358 16.1143C15.2823 16.2608 15.3646 16.4595 15.3646 16.6667C15.3646 16.8739 15.2823 17.0726 15.1358 17.2191C14.9892 17.3656 14.7905 17.4479 14.5833 17.4479H13.0208C12.8136 17.4479 12.6149 17.3656 12.4684 17.2191C12.3219 17.0726 12.2396 16.8739 12.2396 16.6667Z" fill="black"/>
</mask>
<g mask="url(#mask0_3_114)">
<path d="M0 0H25V25H0V0Z" fill="white"/>
</g>
</svg>
