<svg width="45" height="45" viewBox="0 0 45 45" fill="none" xmlns="http://www.w3.org/2000/svg">
<rect width="45" height="45" rx="22.5" fill="#52E078"/>
<path d="M28.75 25.625V28.75M28.75 28.75V31.875M28.75 28.75H25.625M28.75 28.75H31.875" stroke="white" stroke-width="3" stroke-linecap="round" stroke-linejoin="round"/>
<path fill-rule="evenodd" clip-rule="evenodd" d="M15.2084 15.2085C14.3796 15.2085 13.5847 15.5377 12.9987 16.1238C12.4126 16.7098 12.0834 17.5047 12.0834 18.3335V26.6668C12.0834 27.4956 12.4126 28.2905 12.9987 28.8765C13.5847 29.4626 14.3796 29.7918 15.2084 29.7918H22.5865C22.5286 29.4476 22.4997 29.0992 22.5 28.7502C22.5 27.5543 22.8355 26.4377 23.4177 25.4887C22.9503 25.6323 22.4557 25.6642 21.9736 25.5818C21.4916 25.4995 21.0356 25.3051 20.6424 25.0144C20.2492 24.7237 19.9296 24.3448 19.7095 23.9081C19.4894 23.4714 19.3748 22.9892 19.375 22.5002C19.3757 22.0509 19.4731 21.6071 19.6608 21.199C19.8485 20.7908 20.122 20.4279 20.4626 20.135C20.8032 19.8422 21.203 19.6261 21.6346 19.5017C22.0663 19.3773 22.5197 19.3474 22.9639 19.4141C23.4082 19.4808 23.8328 19.6425 24.2089 19.8882C24.5851 20.1338 24.9038 20.4577 25.1434 20.8377C25.383 21.2177 25.5379 21.6449 25.5974 22.0901C25.657 22.5354 25.6199 22.9883 25.4886 23.4179C26.4698 22.816 27.5989 22.4983 28.75 22.5002C30.3511 22.5002 31.8115 23.1022 32.9167 24.0918V18.3335C32.9167 17.5047 32.5875 16.7098 32.0014 16.1238C31.4154 15.5377 30.6205 15.2085 29.7917 15.2085H15.2084ZM22.5 21.4585C22.2238 21.4585 21.9588 21.5682 21.7635 21.7636C21.5681 21.9589 21.4584 22.2239 21.4584 22.5002C21.4584 22.7764 21.5681 23.0414 21.7635 23.2367C21.9588 23.4321 22.2238 23.5418 22.5 23.5418C22.7763 23.5418 23.0413 23.4321 23.2366 23.2367C23.432 23.0414 23.5417 22.7764 23.5417 22.5002C23.5417 22.2239 23.432 21.9589 23.2366 21.7636C23.0413 21.5682 22.7763 21.4585 22.5 21.4585Z" fill="white"/>
</svg>
