<svg width="45" height="45" viewBox="0 0 45 45" fill="none" xmlns="http://www.w3.org/2000/svg">
<rect width="45" height="45" rx="22.5" fill="#7160FF"/>
<path d="M16.5208 32.2793H16.25C15.2677 32.2793 14.777 32.2793 14.4718 31.9741C14.1666 31.671 14.1666 31.1793 14.1666 30.197V29.0387C14.1666 28.4991 14.1666 28.2293 14.3052 27.9877C14.4437 27.746 14.6531 27.6252 15.0718 27.3814C17.8281 25.7783 21.7416 24.8762 24.3531 26.4335C24.5288 26.5384 24.685 26.6661 24.8218 26.8168C24.962 26.97 25.07 27.1498 25.1394 27.3455C25.2089 27.5411 25.2384 27.7488 25.2261 27.956C25.2139 28.1633 25.1602 28.366 25.0682 28.5522C24.9762 28.7383 24.8478 28.9041 24.6906 29.0397C24.5653 29.1587 24.4125 29.2446 24.2458 29.2897C24.3708 29.2752 24.4906 29.2588 24.6052 29.2408C25.5541 29.0897 26.351 28.5814 27.0802 28.0304L28.9635 26.6085C29.2997 26.3646 29.7044 26.2332 30.1198 26.2332C30.5351 26.2332 30.9398 26.3646 31.276 26.6085C31.8729 27.0595 32.0562 27.8022 31.6781 28.4085C31.2375 29.1147 30.6166 30.0179 30.0208 30.57C29.425 31.122 28.5354 31.6158 27.8104 31.9658C27.0062 32.3543 26.1187 32.5772 25.2156 32.7241C23.3843 33.02 21.476 32.9741 19.6635 32.6012C18.6295 32.3884 17.5765 32.2798 16.5208 32.2793ZM16.8604 12.6939C16.4781 13.0762 16.3354 13.6033 16.2823 14.4272C16.8929 14.4189 17.4761 14.1725 17.9078 13.7406C18.3395 13.3087 18.5856 12.7254 18.5937 12.1147C17.7708 12.1689 17.2427 12.3116 16.8604 12.6939ZM28.1395 12.6939C27.7572 12.3116 27.2302 12.1689 26.4062 12.1158C26.4146 12.7264 26.6609 13.3096 27.0928 13.7414C27.5247 14.1731 28.1081 14.4192 28.7187 14.4272C28.6645 13.6043 28.5218 13.0762 28.1395 12.6939ZM28.1395 19.8064C27.7572 20.1887 27.2302 20.3314 26.4062 20.3845C26.4146 19.7739 26.6609 19.1907 27.0928 18.759C27.5247 18.3273 28.1081 18.0812 28.7187 18.0731C28.6645 18.896 28.5218 19.4241 28.1395 19.8064ZM16.8604 19.8064C17.2427 20.1887 17.7698 20.3314 18.5937 20.3845C18.5853 19.7739 18.339 19.1907 17.9071 18.759C17.4752 18.3273 16.8918 18.0812 16.2812 18.0731C16.3354 18.896 16.4781 19.4241 16.8604 19.8064Z" fill="white"/>
<path fill-rule="evenodd" clip-rule="evenodd" d="M16.25 15.9897C17.286 15.9897 18.2796 15.5782 19.0121 14.8456C19.7447 14.1131 20.1562 13.1195 20.1562 12.0835H24.8438C24.8438 13.1195 25.2553 14.1131 25.9879 14.8456C26.7204 15.5782 27.714 15.9897 28.75 15.9897V16.5106C27.714 16.5106 26.7204 16.9221 25.9879 17.6547C25.2553 18.3873 24.8438 19.3808 24.8438 20.4168H20.1562C20.1562 19.3808 19.7447 18.3873 19.0121 17.6547C18.2796 16.9221 17.286 16.5106 16.25 16.5106V15.9897ZM22.5 17.2918C22.7763 17.2918 23.0412 17.1821 23.2366 16.9867C23.4319 16.7914 23.5417 16.5264 23.5417 16.2502C23.5417 15.9739 23.4319 15.7089 23.2366 15.5136C23.0412 15.3182 22.7763 15.2085 22.5 15.2085C22.2237 15.2085 21.9588 15.3182 21.7634 15.5136C21.5681 15.7089 21.4583 15.9739 21.4583 16.2502C21.4583 16.5264 21.5681 16.7914 21.7634 16.9867C21.9588 17.1821 22.2237 17.2918 22.5 17.2918Z" fill="white"/>
</svg>
