<svg width="25" height="25" viewBox="0 0 25 25" fill="none" xmlns="http://www.w3.org/2000/svg">
<g clip-path="url(#clip0_3_141)">
<path d="M16.0461 1.01374e-05C15.8538 0.00770245 15.6682 0.0423178 15.475 0.0903948L2.40382 3.27501C0.857667 3.65386 -0.10964 5.21347 0.270167 6.76059L2.10286 14.2433C2.21392 14.689 2.43015 15.1016 2.73345 15.4466C3.03676 15.7915 3.4183 16.0588 3.84613 16.226V14.4231C3.84613 11.7721 6.00286 9.61539 8.65382 9.61539H20.7634L18.9606 2.19328C18.8011 1.54811 18.424 0.977654 17.893 0.578118C17.3619 0.178581 16.7102 -0.0255979 16.0461 1.01374e-05ZM17.2173 4.14713L17.999 7.42212L14.7538 8.2029L13.9423 4.9577L17.2173 4.14713ZM8.65382 11.5385C7.06151 11.5385 5.76921 12.8308 5.76921 14.4231V22.1154C5.76921 23.7077 7.06151 25 8.65382 25H22.1154C23.7077 25 25 23.7077 25 22.1154V14.4231C25 12.8308 23.7077 11.5385 22.1154 11.5385H8.65382ZM8.65382 13.0712H22.1154C22.8567 13.0712 23.4673 13.6817 23.4673 14.4231V15.3846H7.3019V14.4231C7.3019 13.6817 7.91248 13.0712 8.65382 13.0712ZM7.3019 18.2692H23.4673V22.1154C23.4673 22.8567 22.8567 23.4673 22.1154 23.4673H8.65382C8.29589 23.4653 7.9532 23.3222 7.7001 23.0691C7.447 22.816 7.30392 22.4733 7.3019 22.1154V18.2692Z" fill="white"/>
</g>
<defs>
<clipPath id="clip0_3_141">
<rect width="25" height="25" fill="white"/>
</clipPath>
</defs>
</svg>
