<svg width="45" height="45" viewBox="0 0 45 45" fill="none" xmlns="http://www.w3.org/2000/svg">
<rect width="45" height="45" rx="22.5" fill="#43CDFF"/>
<path d="M22.5 20.5002C21.7336 20.5002 20.9844 20.7274 20.3472 21.1532C19.7099 21.579 19.2133 22.1842 18.92 22.8923C18.6267 23.6003 18.55 24.3795 18.6995 25.1311C18.849 25.8828 19.2181 26.5733 19.76 27.1152C20.3019 27.6571 20.9924 28.0262 21.744 28.1757C22.4957 28.3252 23.2749 28.2485 23.9829 27.9552C24.691 27.6619 25.2962 27.1652 25.722 26.528C26.1478 25.8908 26.375 25.1416 26.375 24.3752C26.375 23.3475 25.9668 22.3618 25.2401 21.6351C24.5134 20.9084 23.5277 20.5002 22.5 20.5002ZM22.5 25.6668C22.2446 25.6668 21.9948 25.5911 21.7824 25.4491C21.57 25.3072 21.4044 25.1055 21.3067 24.8695C21.2089 24.6334 21.1833 24.3737 21.2332 24.1232C21.283 23.8726 21.406 23.6425 21.5867 23.4618C21.7673 23.2812 21.9975 23.1582 22.248 23.1083C22.4986 23.0585 22.7583 23.0841 22.9943 23.1818C23.2303 23.2796 23.4321 23.4451 23.574 23.6576C23.7159 23.87 23.7917 24.1197 23.7917 24.3752C23.7917 24.7177 23.6556 25.0463 23.4134 25.2885C23.1711 25.5307 22.8426 25.6668 22.5 25.6668ZM21.5829 17.5422C21.7058 17.6598 21.8506 17.752 22.0092 17.8135C22.1638 17.8818 22.331 17.9171 22.5 17.9171C22.6691 17.9171 22.8362 17.8818 22.9909 17.8135C23.1494 17.752 23.2943 17.6598 23.4171 17.5422L26.375 14.636C26.6251 14.3859 26.7656 14.0467 26.7656 13.6931C26.7656 13.3394 26.6251 13.0002 26.375 12.7502C26.1249 12.5001 25.7858 12.3596 25.4321 12.3596C25.0784 12.3596 24.7393 12.5001 24.4892 12.7502L23.7917 13.5122V8.87516C23.7917 8.53259 23.6556 8.20405 23.4134 7.96182C23.1711 7.71958 22.8426 7.5835 22.5 7.5835C22.1574 7.5835 21.8289 7.71958 21.5867 7.96182C21.3444 8.20405 21.2084 8.53259 21.2084 8.87516V13.5122L20.5109 12.7502C20.2608 12.5001 19.9216 12.3596 19.5679 12.3596C19.2143 12.3596 18.8751 12.5001 18.625 12.7502C18.3749 13.0002 18.2345 13.3394 18.2345 13.6931C18.2345 14.0467 18.3749 14.3859 18.625 14.636L21.5829 17.5422ZM31.5417 24.3752C31.5417 24.1197 31.4659 23.87 31.324 23.6576C31.1821 23.4451 30.9803 23.2796 30.7443 23.1818C30.5083 23.0841 30.2486 23.0585 29.998 23.1083C29.7475 23.1582 29.5173 23.2812 29.3367 23.4618C29.156 23.6425 29.033 23.8726 28.9832 24.1232C28.9333 24.3737 28.9589 24.6334 29.0567 24.8695C29.1544 25.1055 29.32 25.3072 29.5324 25.4491C29.7448 25.5911 29.9946 25.6668 30.25 25.6668C30.5926 25.6668 30.9211 25.5307 31.1634 25.2885C31.4056 25.0463 31.5417 24.7177 31.5417 24.3752ZM32.8334 15.3335H28.9584C28.6158 15.3335 28.2872 15.4696 28.045 15.7118C27.8028 15.9541 27.6667 16.2826 27.6667 16.6252C27.6667 16.9677 27.8028 17.2963 28.045 17.5385C28.2872 17.7807 28.6158 17.9168 28.9584 17.9168H32.8334C33.1759 17.9168 33.5045 18.0529 33.7467 18.2952C33.9889 18.5374 34.125 18.8659 34.125 19.2085V29.5418C34.125 29.8844 33.9889 30.2129 33.7467 30.4552C33.5045 30.6974 33.1759 30.8335 32.8334 30.8335H12.1667C11.8241 30.8335 11.4956 30.6974 11.2533 30.4552C11.0111 30.2129 10.875 29.8844 10.875 29.5418V19.2085C10.875 18.8659 11.0111 18.5374 11.2533 18.2952C11.4956 18.0529 11.8241 17.9168 12.1667 17.9168H16.0417C16.3843 17.9168 16.7128 17.7807 16.955 17.5385C17.1973 17.2963 17.3334 16.9677 17.3334 16.6252C17.3334 16.2826 17.1973 15.9541 16.955 15.7118C16.7128 15.4696 16.3843 15.3335 16.0417 15.3335H12.1667C11.139 15.3335 10.1534 15.7418 9.42665 16.4685C8.69994 17.1952 8.29169 18.1808 8.29169 19.2085V29.5418C8.29169 30.5695 8.69994 31.5552 9.42665 32.2819C10.1534 33.0086 11.139 33.4168 12.1667 33.4168H32.8334C33.8611 33.4168 34.8467 33.0086 35.5734 32.2819C36.3001 31.5552 36.7084 30.5695 36.7084 29.5418V19.2085C36.7084 18.1808 36.3001 17.1952 35.5734 16.4685C34.8467 15.7418 33.8611 15.3335 32.8334 15.3335ZM13.4584 24.3752C13.4584 24.6306 13.5341 24.8804 13.676 25.0928C13.818 25.3052 14.0197 25.4707 14.2557 25.5685C14.4917 25.6663 14.7515 25.6919 15.002 25.642C15.2526 25.5922 15.4827 25.4692 15.6634 25.2885C15.844 25.1079 15.967 24.8777 16.0169 24.6272C16.0667 24.3766 16.0411 24.1169 15.9434 23.8809C15.8456 23.6448 15.68 23.4431 15.4676 23.3012C15.2552 23.1593 15.0055 23.0835 14.75 23.0835C14.4074 23.0835 14.0789 23.2196 13.8367 23.4618C13.5944 23.7041 13.4584 24.0326 13.4584 24.3752Z" fill="white"/>
</svg>
