<svg width="45" height="45" viewBox="0 0 45 45" fill="none" xmlns="http://www.w3.org/2000/svg">
<rect width="45" height="45" rx="22.5" fill="#4382FF"/>
<path fill-rule="evenodd" clip-rule="evenodd" d="M14.3715 12.0104C15.0981 11.2836 16.0835 10.8752 17.1112 10.875C18.1316 10.875 19.6273 10.5908 20.0846 11.7934C20.271 12.283 20.6019 12.7044 21.0332 13.0017C21.4646 13.299 21.9761 13.4582 22.5 13.4582C23.0239 13.4582 23.5354 13.299 23.9668 13.0017C24.3981 12.7044 24.729 12.283 24.9154 11.7934C25.3727 10.5921 26.8697 10.8763 27.8888 10.8763C28.9158 10.8765 29.9007 11.2844 30.6272 12.0104L35.4167 16.7986C35.901 17.283 36.173 17.94 36.173 18.625C36.173 19.31 35.901 19.967 35.4167 20.4514L33.5076 22.3605C32.8359 23.0322 31.8982 23.2505 31.0534 23.0399L31.4047 30.0563C31.431 30.5808 31.3504 31.1051 31.1678 31.5975C30.9851 32.0899 30.7043 32.54 30.3424 32.9205C29.9805 33.3011 29.545 33.6041 29.0624 33.8111C28.5797 34.0182 28.0601 34.125 27.5349 34.125H17.4651C16.9399 34.125 16.4203 34.0182 15.9376 33.8111C15.455 33.6041 15.0195 33.3011 14.6576 32.9205C14.2957 32.54 14.0149 32.0899 13.8322 31.5975C13.6496 31.1051 13.569 30.5808 13.5952 30.0563L13.9466 23.0399C13.5137 23.1483 13.0601 23.1427 12.63 23.0236C12.1999 22.9045 11.808 22.6761 11.4924 22.3605L9.58333 20.4514C9.09903 19.967 8.82697 19.31 8.82697 18.625C8.82697 17.94 9.09903 17.283 9.58333 16.7986L14.3715 12.0104Z" fill="white"/>
</svg>
