<svg width="45" height="45" viewBox="0 0 45 45" fill="none" xmlns="http://www.w3.org/2000/svg">
<rect width="45" height="45" rx="22.5" fill="#32EB60"/>
<path d="M21.6221 12.6098C22.0011 11.9148 22.9989 11.9148 23.3779 12.6098L26.1668 17.7235C26.3106 17.9872 26.5654 18.1723 26.8607 18.2276L32.5859 19.2998C33.364 19.4455 33.6723 20.3945 33.1285 20.9697L29.1269 25.2023C28.9205 25.4206 28.8232 25.7201 28.8618 26.018L29.6114 31.7943C29.7132 32.5793 28.9059 33.1658 28.1908 32.8264L22.9288 30.3286C22.6575 30.1997 22.3425 30.1997 22.0712 30.3286L16.8092 32.8264C16.0941 33.1658 15.2868 32.5793 15.3886 31.7943L16.1382 26.018C16.1768 25.7201 16.0795 25.4206 15.8731 25.2023L11.8715 20.9697C11.3277 20.3945 11.636 19.4455 12.4141 19.2998L18.1393 18.2276C18.4346 18.1723 18.6894 17.9872 18.8332 17.7235L21.6221 12.6098Z" fill="white"/>
</svg>
