<svg width="45" height="45" viewBox="0 0 45 45" fill="none" xmlns="http://www.w3.org/2000/svg">
<rect width="45" height="45" rx="22.5" fill="#FF437B"/>
<path d="M17.4625 20.95C18.7985 20.95 20.0798 20.4193 21.0246 19.4746C21.9693 18.5298 22.5 17.2485 22.5 15.9125C22.5 14.5765 21.9693 13.2952 21.0246 12.3504C20.0798 11.4057 18.7985 10.875 17.4625 10.875C16.1265 10.875 14.8452 11.4057 13.9005 12.3504C12.9557 13.2952 12.425 14.5765 12.425 15.9125C12.425 17.2485 12.9557 18.5298 13.9005 19.4746C14.8452 20.4193 16.1265 20.95 17.4625 20.95ZM20.95 26.375C20.95 25.5624 21.2054 24.7703 21.6802 24.1108C22.155 23.4513 22.8252 22.9577 23.5959 22.7C23.2456 22.5677 22.8744 22.4999 22.5 22.5H12.425C11.6028 22.5 10.8143 22.8266 10.233 23.408C9.65162 23.9893 9.32501 24.7778 9.32501 25.6C9.32501 25.6 9.32501 31.8 17.4625 31.8C18.8529 31.8 20.0045 31.6187 20.9609 31.3195C20.9541 31.2215 20.9505 31.1233 20.95 31.025V26.375ZM33.35 17.075C33.35 18.1027 32.9418 19.0883 32.215 19.815C31.4883 20.5417 30.5027 20.95 29.475 20.95C28.4473 20.95 27.4617 20.5417 26.735 19.815C26.0083 19.0883 25.6 18.1027 25.6 17.075C25.6 16.0473 26.0083 15.0617 26.735 14.335C27.4617 13.6083 28.4473 13.2 29.475 13.2C30.5027 13.2 31.4883 13.6083 32.215 14.335C32.9418 15.0617 33.35 16.0473 33.35 17.075ZM22.5 26.375C22.5 25.7584 22.745 25.167 23.181 24.731C23.617 24.295 24.2084 24.05 24.825 24.05H34.125C34.7416 24.05 35.333 24.295 35.769 24.731C36.2051 25.167 36.45 25.7584 36.45 26.375V31.025C36.45 31.6416 36.2051 32.233 35.769 32.669C35.333 33.105 34.7416 33.35 34.125 33.35H24.825C24.2084 33.35 23.617 33.105 23.181 32.669C22.745 32.233 22.5 31.6416 22.5 31.025V26.375ZM24.05 26.375V27.925C24.6666 27.925 25.258 27.68 25.694 27.244C26.1301 26.808 26.375 26.2166 26.375 25.6H24.825C24.825 25.8055 24.7434 26.0027 24.598 26.148C24.4527 26.2934 24.2556 26.375 24.05 26.375ZM34.9 27.925V26.375C34.6945 26.375 34.4973 26.2934 34.352 26.148C34.2067 26.0027 34.125 25.8055 34.125 25.6H32.575C32.575 26.2166 32.82 26.808 33.256 27.244C33.692 27.68 34.2834 27.925 34.9 27.925ZM32.575 31.8H34.125C34.125 31.5945 34.2067 31.3973 34.352 31.252C34.4973 31.1067 34.6945 31.025 34.9 31.025V29.475C34.2834 29.475 33.692 29.72 33.256 30.156C32.82 30.592 32.575 31.1834 32.575 31.8ZM24.05 29.475V31.025C24.2556 31.025 24.4527 31.1067 24.598 31.252C24.7434 31.3973 24.825 31.5945 24.825 31.8H26.375C26.375 31.1834 26.1301 30.592 25.694 30.156C25.258 29.72 24.6666 29.475 24.05 29.475ZM29.475 31.025C30.0916 31.025 30.683 30.78 31.119 30.344C31.5551 29.908 31.8 29.3166 31.8 28.7C31.8 28.0834 31.5551 27.492 31.119 27.056C30.683 26.62 30.0916 26.375 29.475 26.375C28.8584 26.375 28.267 26.62 27.831 27.056C27.395 27.492 27.15 28.0834 27.15 28.7C27.15 29.3166 27.395 29.908 27.831 30.344C28.267 30.78 28.8584 31.025 29.475 31.025Z" fill="white"/>
</svg>
