<svg width="45" height="45" viewBox="0 0 45 45" fill="none" xmlns="http://www.w3.org/2000/svg">
<rect width="45" height="45" rx="22.5" fill="#7243FF"/>
<g clip-path="url(#clip0_26_623)">
<path d="M20.33 12.6549C21.0082 12.3332 21.7494 12.1663 22.5 12.1663C23.2506 12.1663 23.9918 12.3332 24.67 12.6549L37.2612 18.6198C37.4805 18.7236 37.6662 18.8871 37.7969 19.0916C37.9276 19.296 37.9981 19.5332 38.0002 19.7758C38.0024 20.0185 37.9361 20.2568 37.8091 20.4636C37.682 20.6703 37.4993 20.8371 37.2818 20.9448L24.7527 27.1603C24.0527 27.5081 23.2816 27.689 22.5 27.689C21.7184 27.689 20.9474 27.5081 20.2473 27.1603L9.58334 21.8696V27.6666C9.58334 28.0092 9.44725 28.3378 9.20502 28.58C8.96278 28.8222 8.63424 28.9583 8.29167 28.9583C7.9491 28.9583 7.62056 28.8222 7.37833 28.58C7.13609 28.3378 7.00001 28.0092 7.00001 27.6666V19.8521C6.98731 19.5966 7.05075 19.3431 7.18228 19.1237C7.31381 18.9044 7.50752 18.729 7.73884 18.6198L20.33 12.6549ZM12.1667 26.0366V30.25C12.1667 30.4199 12.2003 30.5881 12.2654 30.7451C12.3306 30.902 12.4261 31.0445 12.5464 31.1645L12.5516 31.1722L12.611 31.2265L12.766 31.3711C12.8952 31.4917 13.082 31.6527 13.3266 31.8542C13.8097 32.2495 14.5072 32.7713 15.3778 33.2957C17.1086 34.3316 19.5989 35.4166 22.5 35.4166C25.4011 35.4166 27.894 34.3316 29.6223 33.2957C30.5521 32.7375 31.4274 32.0932 32.2366 31.3711L32.3916 31.2265L32.4329 31.1851L32.4484 31.1696L32.451 31.1671L32.4562 31.1645C32.576 31.0443 32.6711 30.9017 32.7358 30.7448C32.8005 30.5878 32.8336 30.4197 32.8333 30.25V26.034L25.8997 29.475C24.8431 29.9994 23.6796 30.2723 22.5 30.2723C21.3205 30.2723 20.1569 29.9994 19.1003 29.475L12.1667 26.0366Z" fill="white"/>
</g>
<defs>
<clipPath id="clip0_26_623">
<rect width="31" height="31" fill="white" transform="translate(7 7)"/>
</clipPath>
</defs>
</svg>
