<svg width="45" height="45" viewBox="0 0 45 45" fill="none" xmlns="http://www.w3.org/2000/svg">
<rect width="45" height="45" rx="22.5" fill="#FF4346"/>
<path d="M21.6221 11.6098C22.0011 10.9148 22.9989 10.9148 23.3779 11.6098L26.1668 16.7235C26.3106 16.9872 26.5654 17.1723 26.8607 17.2276L32.5859 18.2998C33.364 18.4455 33.6723 19.3945 33.1285 19.9697L29.1269 24.2023C28.9205 24.4206 28.8232 24.7201 28.8618 25.018L29.6114 30.7943C29.7132 31.5793 28.9059 32.1658 28.1908 31.8264L22.9288 29.3286C22.6575 29.1997 22.3425 29.1997 22.0712 29.3286L16.8092 31.8264C16.0941 32.1658 15.2868 31.5793 15.3886 30.7943L16.1382 25.018C16.1768 24.7201 16.0795 24.4206 15.8731 24.2023L11.8715 19.9697C11.3277 19.3945 11.636 18.4455 12.4141 18.2998L18.1393 17.2276C18.4346 17.1723 18.6894 16.9872 18.8332 16.7235L21.6221 11.6098Z" fill="white"/>
</svg>
