<svg width="45" height="45" viewBox="0 0 45 45" fill="none" xmlns="http://www.w3.org/2000/svg">
<rect width="45" height="45" rx="22.5" fill="#7243FF"/>
<path d="M10.875 19.9167V17.3333C10.875 16.6482 11.1472 15.9911 11.6316 15.5066C12.1161 15.0222 12.7732 14.75 13.4583 14.75H16.0417M10.875 19.9167C12.5968 19.9167 16.0417 18.8833 16.0417 14.75M10.875 19.9167V25.0833M16.0417 14.75H28.9583M10.875 25.0833V27.6667C10.875 28.3518 11.1472 29.0089 11.6316 29.4934C12.1161 29.9778 12.7732 30.25 13.4583 30.25H16.0417M10.875 25.0833C12.5968 25.0833 16.0417 26.1167 16.0417 30.25M34.125 19.9167V17.3333C34.125 16.6482 33.8528 15.9911 33.3684 15.5066C32.8839 15.0222 32.2268 14.75 31.5417 14.75H28.9583M34.125 19.9167C32.4032 19.9167 28.9583 18.8833 28.9583 14.75M34.125 19.9167V22.5M16.0417 30.25H21.2083" stroke="white" stroke-width="3" stroke-linecap="round" stroke-linejoin="round"/>
<path d="M22.5 25.0832C23.9268 25.0832 25.0834 23.9266 25.0834 22.4998C25.0834 21.0731 23.9268 19.9165 22.5 19.9165C21.0733 19.9165 19.9167 21.0731 19.9167 22.4998C19.9167 23.9266 21.0733 25.0832 22.5 25.0832Z" stroke="white" stroke-width="3" stroke-linecap="round" stroke-linejoin="round"/>
<path d="M30.25 26.375V30.25M30.25 30.25V34.125M30.25 30.25H26.375M30.25 30.25H34.125" stroke="white" stroke-width="3" stroke-linecap="round" stroke-linejoin="round"/>
</svg>
