<svg width="45" height="45" viewBox="0 0 45 45" fill="none" xmlns="http://www.w3.org/2000/svg">
<rect width="45" height="45" rx="22.5" fill="#FFB743"/>
<path d="M13.0804 10.0889C13.1042 9.83856 13.2238 9.60706 13.4143 9.44277C13.6047 9.27848 13.8512 9.19409 14.1024 9.20724C14.3536 9.22038 14.5899 9.33003 14.7622 9.51331C14.9344 9.69658 15.0292 9.9393 15.0268 10.1908V16.6864C15.0268 16.9066 15.1143 17.1178 15.27 17.2736C15.4257 17.4293 15.6369 17.5168 15.8571 17.5168C16.0774 17.5168 16.2886 17.4293 16.4443 17.2736C16.6 17.1178 16.6875 16.9066 16.6875 16.6864V10.0447C16.6875 9.82443 16.775 9.61322 16.9307 9.4575C17.0864 9.30178 17.2976 9.2143 17.5178 9.2143C17.7381 9.2143 17.9493 9.30178 18.105 9.4575C18.2607 9.61322 18.3482 9.82443 18.3482 10.0447V16.6864C18.3482 16.9066 18.4357 17.1178 18.5914 17.2736C18.7471 17.4293 18.9583 17.5168 19.1786 17.5168C19.3988 17.5168 19.61 17.4293 19.7657 17.2736C19.9214 17.1178 20.0089 16.9066 20.0089 16.6864V10.1908C20.0118 9.94261 20.1091 9.70484 20.281 9.5258C20.4528 9.34676 20.6865 9.23989 20.9343 9.22692C21.1822 9.21395 21.4257 9.29585 21.6153 9.45597C21.805 9.61609 21.9265 9.84241 21.9553 10.0889C22.0394 10.8883 22.5 15.3866 22.5 17.5179C22.5 18.9992 21.8523 20.33 20.8282 21.2423C20.4584 21.57 20.2857 21.9077 20.2857 22.1911V22.996L20.2868 23.048C20.3333 23.7112 20.8393 31.1158 20.8393 32.4643C20.8393 32.9005 20.7534 33.3324 20.5864 33.7354C20.4195 34.1383 20.1749 34.5045 19.8665 34.8129C19.558 35.1213 19.1919 35.366 18.7889 35.5329C18.3859 35.6998 17.954 35.7857 17.5178 35.7857C17.0817 35.7857 16.6498 35.6998 16.2468 35.5329C15.8438 35.366 15.4777 35.1213 15.1692 34.8129C14.8608 34.5045 14.6162 34.1383 14.4492 33.7354C14.2823 33.3324 14.1964 32.9005 14.1964 32.4643C14.1964 31.1158 14.7035 23.7112 14.7489 23.048L14.75 22.996V22.1911C14.75 21.9088 14.5773 21.5711 14.2075 21.2423C13.6816 20.7748 13.2608 20.2011 12.9726 19.5592C12.6845 18.9172 12.5356 18.2215 12.5357 17.5179C12.5357 15.3866 12.9963 10.8883 13.0804 10.0889ZM27.9859 22.5L27.9505 23.1156C27.8984 24.0201 27.8287 25.2413 27.76 26.5057C27.6227 29.0155 27.4821 31.7469 27.4821 32.4643C27.4821 32.9005 27.568 33.3324 27.735 33.7354C27.9019 34.1383 28.1465 34.5045 28.455 34.8129C28.7634 35.1213 29.1295 35.366 29.5325 35.5329C29.9355 35.6998 30.3674 35.7857 30.8036 35.7857C31.2397 35.7857 31.6716 35.6998 32.0746 35.5329C32.4776 35.366 32.8437 35.1213 33.1522 34.8129C33.4606 34.5045 33.7052 34.1383 33.8722 33.7354C34.0391 33.3324 34.125 32.9005 34.125 32.4643C34.125 31.666 33.9501 28.6181 33.7995 25.982L33.7951 25.9089C33.6744 23.8064 33.5714 22.0018 33.5714 21.6697V10.0447C33.5714 9.82443 33.4839 9.61322 33.3282 9.4575C33.1725 9.30178 32.9613 9.2143 32.7411 9.2143H32.1875C30.2055 9.2143 28.3046 10.0017 26.9031 11.4032C25.5016 12.8047 24.7143 14.7055 24.7143 16.6875V20.5625C24.7143 21.632 25.5823 22.5 26.6518 22.5H27.9859Z" fill="white"/>
</svg>
