<svg width="45" height="45" viewBox="0 0 45 45" fill="none" xmlns="http://www.w3.org/2000/svg">
<rect width="45" height="45" rx="22.5" fill="#FF0000"/>
<path fill-rule="evenodd" clip-rule="evenodd" d="M18.5759 31.8558C14.7745 28.9431 9.58331 24.1316 9.58331 19.5824C9.58331 11.9822 16.6875 9.14442 22.5 15.0138C28.3125 9.14442 35.4166 11.9822 35.4166 19.5824C35.4166 24.1316 30.2241 28.9431 26.4241 31.8558C24.7036 33.1733 23.8433 33.8333 22.5 33.8333C21.1566 33.8333 20.2964 33.1746 18.5759 31.8558ZM28.3125 16.0729C28.5694 16.0729 28.8158 16.175 28.9975 16.3567C29.1792 16.5383 29.2812 16.7847 29.2812 17.0417V18.6563H30.8958C31.1527 18.6563 31.3991 18.7583 31.5808 18.94C31.7625 19.1217 31.8646 19.3681 31.8646 19.625C31.8646 19.8819 31.7625 20.1283 31.5808 20.31C31.3991 20.4917 31.1527 20.5938 30.8958 20.5938H29.2812V22.2083C29.2812 22.4653 29.1792 22.7117 28.9975 22.8933C28.8158 23.075 28.5694 23.1771 28.3125 23.1771C28.0556 23.1771 27.8091 23.075 27.6275 22.8933C27.4458 22.7117 27.3437 22.4653 27.3437 22.2083V20.5938H25.7291C25.4722 20.5938 25.2258 20.4917 25.0441 20.31C24.8625 20.1283 24.7604 19.8819 24.7604 19.625C24.7604 19.3681 24.8625 19.1217 25.0441 18.94C25.2258 18.7583 25.4722 18.6563 25.7291 18.6563H27.3437V17.0417C27.3437 16.7847 27.4458 16.5383 27.6275 16.3567C27.8091 16.175 28.0556 16.0729 28.3125 16.0729Z" fill="white"/>
</svg>
