<svg width="45" height="45" viewBox="0 0 45 45" fill="none" xmlns="http://www.w3.org/2000/svg">
<rect width="45" height="45" rx="22.5" fill="#43FFB7"/>
<path d="M33.8221 8.4957C33.9803 8.65918 34.1016 8.84375 34.1859 9.03887C34.2703 9.23398 34.3125 9.4502 34.3125 9.68223V14.75C34.3125 15.6834 33.5584 16.4375 32.625 16.4375C31.6916 16.4375 30.9375 15.6834 30.9375 14.75V13.7639L25.3793 19.3168C24.757 19.9391 23.7551 19.9812 23.0854 19.4064L18.2812 15.2826L13.4719 19.4064C12.7652 20.0129 11.7 19.9285 11.0936 19.2219C10.4871 18.5152 10.5715 17.45 11.2781 16.8436L17.1844 11.7811C17.8172 11.2379 18.7506 11.2379 19.3834 11.7811L24.1031 15.8258L28.5486 11.375H27.5625C26.6291 11.375 25.875 10.6209 25.875 9.6875C25.875 8.7541 26.6291 8 27.5625 8H32.625C33.0891 8 33.5109 8.18984 33.8168 8.49043L33.8221 8.4957ZM9 24.0312C9 22.6338 10.1338 21.5 11.5312 21.5H33.4688C34.8662 21.5 36 22.6338 36 24.0312V32.4688C36 33.8662 34.8662 35 33.4688 35H11.5312C10.1338 35 9 33.8662 9 32.4688V24.0312ZM11.5312 29.9375V32.4688H14.0625C14.0625 31.0713 12.9287 29.9375 11.5312 29.9375ZM14.0625 24.0312H11.5312V26.5625C12.9287 26.5625 14.0625 25.4287 14.0625 24.0312ZM33.4688 29.9375C32.0713 29.9375 30.9375 31.0713 30.9375 32.4688H33.4688V29.9375ZM30.9375 24.0312C30.9375 25.4287 32.0713 26.5625 33.4688 26.5625V24.0312H30.9375ZM25.875 28.25C25.875 27.3549 25.5194 26.4965 24.8865 25.8635C24.2535 25.2306 23.3951 24.875 22.5 24.875C21.6049 24.875 20.7464 25.2306 20.1135 25.8635C19.4806 26.4965 19.125 27.3549 19.125 28.25C19.125 29.1451 19.4806 30.0035 20.1135 30.6365C20.7464 31.2694 21.6049 31.625 22.5 31.625C23.3951 31.625 24.2535 31.2694 24.8865 30.6365C25.5194 30.0035 25.875 29.1451 25.875 28.25Z" fill="white"/>
</svg>
