<svg width="45" height="45" viewBox="0 0 45 45" fill="none" xmlns="http://www.w3.org/2000/svg">
<rect width="45" height="45" rx="22.5" fill="#CCDC1C"/>
<path fill-rule="evenodd" clip-rule="evenodd" d="M23.3654 9.8636L34.3446 15.999C34.6669 16.1599 34.9379 16.4075 35.1273 16.7139C35.3167 17.0203 35.4169 17.3735 35.4166 17.7337V19.5937C35.4166 20.485 34.6933 21.2083 33.8021 21.2083H32.8333V31.5416H34.125C34.4676 31.5416 34.7961 31.6777 35.0383 31.92C35.2806 32.1622 35.4166 32.4907 35.4166 32.8333C35.4166 33.1759 35.2806 33.5044 35.0383 33.7467C34.7961 33.9889 34.4676 34.125 34.125 34.125H10.875C10.5324 34.125 10.2039 33.9889 9.96163 33.7467C9.7194 33.5044 9.58331 33.1759 9.58331 32.8333C9.58331 32.4907 9.7194 32.1622 9.96163 31.92C10.2039 31.6777 10.5324 31.5416 10.875 31.5416H12.1666V21.2083H11.1979C10.3066 21.2083 9.58331 20.485 9.58331 19.5937V17.7337C9.58331 17.0595 9.93206 16.4395 10.4952 16.0881L21.6333 9.8636C21.9024 9.72901 22.1991 9.65894 22.5 9.65894C22.8009 9.65894 23.0963 9.72901 23.3654 9.8636ZM28.9583 21.2083H16.0416V31.5416H18.625V23.7916H21.2083V31.5416H23.7916V23.7916H26.375V31.5416H28.9583V21.2083ZM22.5 14.75C22.1574 14.75 21.8289 14.8861 21.5866 15.1283C21.3444 15.3705 21.2083 15.6991 21.2083 16.0416C21.2083 16.3842 21.3444 16.7128 21.5866 16.955C21.8289 17.1972 22.1574 17.3333 22.5 17.3333C22.8426 17.3333 23.1711 17.1972 23.4133 16.955C23.6556 16.7128 23.7916 16.3842 23.7916 16.0416C23.7916 15.6991 23.6556 15.3705 23.4133 15.1283C23.1711 14.8861 22.8426 14.75 22.5 14.75Z" fill="white"/>
</svg>
