<svg width="48" height="48" viewBox="0 0 48 48" fill="none" xmlns="http://www.w3.org/2000/svg">
<rect width="48" height="48" rx="24" fill="url(#paint0_linear_1192_749)"/>
<path d="M23.7969 17.9531C25.4219 17.9531 26.7031 18.4844 27.6406 19.5469C28.5781 20.6042 29.0469 22.0417 29.0469 23.8594C29.0469 25.6771 28.5781 27.1172 27.6406 28.1797C26.7031 29.2422 25.4219 29.7734 23.7969 29.7734C22.1667 29.7734 20.8802 29.2448 19.9375 28.1875C19 27.125 18.5312 25.6823 18.5312 23.8594C18.5312 22.0417 19.0026 20.6042 19.9453 19.5469C20.8932 18.4844 22.1771 17.9531 23.7969 17.9531ZM23.7969 19.5859C22.7344 19.5859 21.888 19.9714 21.2578 20.7422C20.6328 21.513 20.3203 22.5521 20.3203 23.8594C20.3203 25.1667 20.6302 26.2083 21.25 26.9844C21.8698 27.7552 22.7188 28.1406 23.7969 28.1406C24.8646 28.1406 25.7083 27.7552 26.3281 26.9844C26.9479 26.2083 27.2578 25.1667 27.2578 23.8594C27.2578 22.5469 26.9479 21.5078 26.3281 20.7422C25.7083 19.9714 24.8646 19.5859 23.7969 19.5859Z" fill="white"/>
<defs>
<linearGradient id="paint0_linear_1192_749" x1="24" y1="0" x2="24" y2="48" gradientUnits="userSpaceOnUse">
<stop stop-color="#8B7DFF"/>
<stop offset="1" stop-color="#4F42BD"/>
</linearGradient>
</defs>
</svg>
