<svg width="99" height="104" viewBox="0 0 99 104" fill="none" xmlns="http://www.w3.org/2000/svg">
<path fill-rule="evenodd" clip-rule="evenodd" d="M41.984 0.9375H52.016C60.7465 0.9375 67.6625 0.9375 73.0728 1.66425C78.6398 2.41475 83.1475 3.99175 86.7052 7.54475C87.3345 8.22008 87.6771 9.1133 87.6608 10.0362C87.6445 10.9592 87.2707 11.8397 86.618 12.4925C85.9652 13.1452 85.0847 13.519 84.1617 13.5353C83.2388 13.5516 82.3456 13.209 81.6702 12.5798C79.6562 10.5752 76.9012 9.36875 72.1227 8.7275C67.2445 8.072 60.8083 8.0625 51.75 8.0625H42.25C33.1917 8.0625 26.7603 8.072 21.8725 8.7275C17.0988 9.36875 14.3438 10.5752 12.3345 12.5845C10.3253 14.5938 9.11875 17.3488 8.4775 22.1225C7.822 27.0103 7.8125 33.4417 7.8125 42.5V61.5C7.8125 70.5583 7.822 76.9945 8.4775 81.8775C9.11875 86.6513 10.3253 89.4062 12.3345 91.4155C14.3438 93.4248 17.0987 94.6313 21.8773 95.2725C26.7603 95.928 33.1917 95.9375 42.25 95.9375H51.75C60.8083 95.9375 67.2445 95.928 72.1275 95.2725C76.9013 94.6313 79.6562 93.4248 81.6655 91.4155C84.9715 88.1095 85.9737 82.9748 86.1447 70.9478C86.1586 70.0029 86.5472 69.1023 87.2251 68.444C87.5608 68.118 87.9574 67.8614 88.3922 67.6887C88.8271 67.516 89.2917 67.4306 89.7595 67.4375C90.2273 67.4444 90.6892 67.5433 91.1188 67.7287C91.5484 67.914 91.9373 68.1822 92.2633 68.5179C92.5892 68.8535 92.8459 69.2501 93.0186 69.685C93.1913 70.1198 93.2766 70.5844 93.2697 71.0522C93.1035 82.5805 92.3577 90.8027 86.7052 96.4552C83.1475 100.008 78.6398 101.585 73.0728 102.336C67.6578 103.062 60.7465 103.062 52.016 103.062H41.984C33.2535 103.062 26.3375 103.062 20.9272 102.336C15.3603 101.585 10.8525 100.008 7.29475 96.4552C3.74175 92.8975 2.16475 88.3898 1.41425 82.8228C0.687501 77.4078 0.6875 70.4965 0.6875 61.766V42.234C0.6875 33.5035 0.687501 26.5875 1.41425 21.1772C2.16475 15.6103 3.74175 11.1025 7.29475 7.54475C10.8525 3.99175 15.3603 2.41475 20.9272 1.66425C26.3423 0.9375 33.2535 0.9375 41.984 0.9375ZM76.0415 28.4685C77.2289 27.2255 78.6528 26.2323 80.2294 25.5474C81.806 24.8624 83.5037 24.4994 85.2226 24.4798C86.9415 24.4601 88.647 24.7842 90.2389 25.4329C91.8307 26.0817 93.2769 27.042 94.4925 28.2575C95.708 29.4731 96.6683 30.9193 97.3171 32.5111C97.9658 34.103 98.2899 35.8085 98.2702 37.5274C98.2506 39.2463 97.8876 40.944 97.2026 42.5206C96.5177 44.0972 95.5245 45.5211 94.2815 46.7085L71.7 69.3042C70.7607 70.2942 69.7613 71.2254 68.7075 72.0925C67.6118 72.9475 66.4338 73.6758 65.1735 74.2775C64.1095 74.7858 62.9885 75.1562 61.345 75.7025L51.446 79.0037C50.3741 79.3624 49.2235 79.4151 48.1233 79.1561C47.0231 78.897 46.0168 78.3364 45.2176 77.5371C44.4184 76.7379 43.8577 75.7317 43.5987 74.6315C43.3396 73.5313 43.3924 72.3806 43.751 71.3088L46.9857 61.6187L47.0522 61.4145C47.6032 59.7663 47.9738 58.65 48.482 57.586C49.079 56.3317 49.8117 55.1466 50.667 54.052C51.3938 53.121 52.225 52.2897 53.4552 51.0595L53.6025 50.9123L76.0415 28.4685ZM89.2465 33.5035C88.7101 32.9669 88.0733 32.5413 87.3724 32.2509C86.6715 31.9605 85.9202 31.811 85.1615 31.811C84.4028 31.811 83.6515 31.9605 82.9506 32.2509C82.2497 32.5413 81.6129 32.9669 81.0765 33.5035L80.212 34.368L80.3735 34.8763C80.82 36.1588 81.6702 37.8687 83.2757 39.4743C84.6964 40.9045 86.4515 41.9576 88.382 42.538L89.2465 41.6735C89.7831 41.1371 90.2087 40.5003 90.4991 39.7994C90.7895 39.0985 90.939 38.3472 90.939 37.5885C90.939 36.8298 90.7895 36.0785 90.4991 35.3776C90.2087 34.6767 89.7831 34.0399 89.2465 33.5035ZM82.9385 47.9815C81.2016 47.075 79.6153 45.9054 78.236 44.514C76.8446 43.1347 75.675 41.5484 74.7685 39.8115L58.6375 55.9425C57.2077 57.3722 56.7043 57.8853 56.2815 58.4268C55.7432 59.1171 55.2856 59.8565 54.9087 60.645C54.6143 61.2673 54.3815 61.9465 53.7402 63.8655L51.8403 69.5655L53.1845 70.9098L58.8845 69.0098C60.8035 68.3685 61.4827 68.1357 62.105 67.8412C62.8903 67.4613 63.6298 67.0037 64.3232 66.4685C64.8648 66.0457 65.3777 65.5423 66.8075 64.1125L82.9385 47.9815ZM24.4375 37.75C24.4375 36.8052 24.8128 35.899 25.4809 35.2309C26.149 34.5628 27.0552 34.1875 28 34.1875H58.875C59.8198 34.1875 60.726 34.5628 61.3941 35.2309C62.0622 35.899 62.4375 36.8052 62.4375 37.75C62.4375 38.6948 62.0622 39.601 61.3941 40.2691C60.726 40.9372 59.8198 41.3125 58.875 41.3125H28C27.0552 41.3125 26.149 40.9372 25.4809 40.2691C24.8128 39.601 24.4375 38.6948 24.4375 37.75ZM24.4375 56.75C24.4375 55.8052 24.8128 54.899 25.4809 54.2309C26.149 53.5628 27.0552 53.1875 28 53.1875H39.875C40.8198 53.1875 41.726 53.5628 42.3941 54.2309C43.0622 54.899 43.4375 55.8052 43.4375 56.75C43.4375 57.6948 43.0622 58.601 42.3941 59.2691C41.726 59.9372 40.8198 60.3125 39.875 60.3125H28C27.0552 60.3125 26.149 59.9372 25.4809 59.2691C24.8128 58.601 24.4375 57.6948 24.4375 56.75ZM24.4375 75.75C24.4375 74.8052 24.8128 73.899 25.4809 73.2309C26.149 72.5628 27.0552 72.1875 28 72.1875H35.125C36.0698 72.1875 36.976 72.5628 37.6441 73.2309C38.3122 73.899 38.6875 74.8052 38.6875 75.75C38.6875 76.6948 38.3122 77.601 37.6441 78.2691C36.976 78.9372 36.0698 79.3125 35.125 79.3125H28C27.0552 79.3125 26.149 78.9372 25.4809 78.2691C24.8128 77.601 24.4375 76.6948 24.4375 75.75Z" fill="white"/>
</svg>
