<svg width="45" height="45" viewBox="0 0 45 45" fill="none" xmlns="http://www.w3.org/2000/svg">
<rect width="45" height="45" rx="22.5" fill="#43A4FF"/>
<path d="M14.75 20.5625C14.2361 20.5625 13.7433 20.7666 13.38 21.13C13.0166 21.4933 12.8125 21.9861 12.8125 22.5C12.8125 23.0139 13.0166 23.5067 13.38 23.87C13.7433 24.2334 14.2361 24.4375 14.75 24.4375C15.2639 24.4375 15.7567 24.2334 16.12 23.87C16.4834 23.5067 16.6875 23.0139 16.6875 22.5C16.6875 21.9861 16.4834 21.4933 16.12 21.13C15.7567 20.7666 15.2639 20.5625 14.75 20.5625ZM20.5625 22.5C20.5625 21.9861 20.7666 21.4933 21.13 21.13C21.4933 20.7666 21.9861 20.5625 22.5 20.5625C23.0139 20.5625 23.5067 20.7666 23.87 21.13C24.2334 21.4933 24.4375 21.9861 24.4375 22.5C24.4375 23.0139 24.2334 23.5067 23.87 23.87C23.5067 24.2334 23.0139 24.4375 22.5 24.4375C21.9861 24.4375 21.4933 24.2334 21.13 23.87C20.7666 23.5067 20.5625 23.0139 20.5625 22.5ZM28.3125 22.5C28.3125 21.9861 28.5166 21.4933 28.88 21.13C29.2433 20.7666 29.7361 20.5625 30.25 20.5625C30.7639 20.5625 31.2567 20.7666 31.62 21.13C31.9834 21.4933 32.1875 21.9861 32.1875 22.5C32.1875 23.0139 31.9834 23.5067 31.62 23.87C31.2567 24.2334 30.7639 24.4375 30.25 24.4375C29.7361 24.4375 29.2433 24.2334 28.88 23.87C28.5166 23.5067 28.3125 23.0139 28.3125 22.5Z" fill="white"/>
</svg>
