<svg width="45" height="45" viewBox="0 0 45 45" fill="none" xmlns="http://www.w3.org/2000/svg">
<rect width="45" height="45" rx="22.5" fill="#FFCE2D"/>
<path d="M17.85 11.1001H14.3625C13.232 11.1001 12.1478 11.5492 11.3484 12.3486C10.5491 13.1479 10.1 14.2321 10.1 15.3626V18.8501H13.6154C13.2742 18.2591 13.1376 17.5721 13.2267 16.8955C13.3158 16.219 13.6256 15.5908 14.1081 15.1083C14.5906 14.6257 15.2189 14.3159 15.8954 14.2268C16.572 14.1377 17.259 14.2743 17.85 14.6155V11.1001ZM19.4 17.3001V18.8501H20.95C21.2565 18.8501 21.5562 18.7592 21.8111 18.5889C22.066 18.4186 22.2647 18.1765 22.382 17.8933C22.4993 17.61 22.53 17.2984 22.4702 16.9977C22.4104 16.697 22.2628 16.4209 22.046 16.2041C21.8292 15.9873 21.553 15.8397 21.2524 15.7799C20.9517 15.7201 20.64 15.7508 20.3568 15.8681C20.0736 15.9854 19.8315 16.1841 19.6612 16.439C19.4909 16.6939 19.4 16.9935 19.4 17.3001ZM23.6346 18.8501C23.9757 18.2591 24.1123 17.5721 24.0233 16.8955C23.9342 16.219 23.6243 15.5908 23.1418 15.1083C22.6593 14.6257 22.0311 14.3159 21.3545 14.2268C20.678 14.1377 19.991 14.2743 19.4 14.6155V11.1001H30.6375C31.768 11.1001 32.8521 11.5492 33.6515 12.3486C34.4509 13.1479 34.9 14.2321 34.9 15.3626V18.8501H23.6346ZM20.4958 20.4001L23.0487 22.9514C23.1942 23.0969 23.276 23.2943 23.276 23.5001C23.276 23.7059 23.1942 23.9033 23.0487 24.0488C22.9032 24.1943 22.7058 24.2761 22.5 24.2761C22.2942 24.2761 22.0968 24.1943 21.9513 24.0488L19.4 21.4959V29.7001H20.95V28.9251C20.95 27.8974 21.3582 26.9118 22.0849 26.1851C22.8116 25.4584 23.7973 25.0501 24.825 25.0501H34.125C34.3905 25.0501 34.6489 25.0759 34.9 25.1276V20.4001H20.4958ZM17.85 29.7001V21.4959L15.2987 24.0488C15.1532 24.1943 14.9558 24.2761 14.75 24.2761C14.5442 24.2761 14.3468 24.1943 14.2013 24.0488C14.0558 23.9033 13.974 23.7059 13.974 23.5001C13.974 23.2943 14.0558 23.0969 14.2013 22.9514L16.7541 20.4001H10.1V25.4376C10.1 26.5681 10.5491 27.6523 11.3484 28.4516C12.1478 29.251 13.232 29.7001 14.3625 29.7001H17.85ZM17.85 17.3001C17.85 16.9935 17.7591 16.6939 17.5888 16.439C17.4184 16.1841 17.1764 15.9854 16.8931 15.8681C16.6099 15.7508 16.2983 15.7201 15.9976 15.7799C15.6969 15.8397 15.4207 15.9873 15.204 16.2041C14.9872 16.4209 14.8396 16.697 14.7798 16.9977C14.72 17.2984 14.7506 17.61 14.868 17.8933C14.9853 18.1765 15.1839 18.4186 15.4388 18.5889C15.6937 18.7592 15.9934 18.8501 16.3 18.8501H17.85V17.3001ZM36.45 28.9251V33.5751C36.45 34.1917 36.205 34.7831 35.769 35.2191C35.333 35.6551 34.7416 35.9001 34.125 35.9001H24.825C24.2083 35.9001 23.617 35.6551 23.181 35.2191C22.7449 34.7831 22.5 34.1917 22.5 33.5751V28.9251C22.5 28.3085 22.7449 27.7171 23.181 27.2811C23.617 26.8451 24.2083 26.6001 24.825 26.6001H34.125C34.7416 26.6001 35.333 26.8451 35.769 27.2811C36.205 27.7171 36.45 28.3085 36.45 28.9251ZM34.9 33.5751V32.0251C34.2833 32.0251 33.692 32.2701 33.256 32.7061C32.8199 33.1421 32.575 33.7335 32.575 34.3501H34.125C34.125 34.1446 34.2066 33.9474 34.352 33.8021C34.4973 33.6567 34.6944 33.5751 34.9 33.5751ZM34.125 28.1501H32.575C32.575 28.7667 32.8199 29.3581 33.256 29.7941C33.692 30.2301 34.2833 30.4751 34.9 30.4751V28.9251C34.6944 28.9251 34.4973 28.8434 34.352 28.6981C34.2066 28.5528 34.125 28.3556 34.125 28.1501ZM24.825 28.1501C24.825 28.3556 24.7433 28.5528 24.598 28.6981C24.4526 28.8434 24.2555 28.9251 24.05 28.9251V30.4751C24.6666 30.4751 25.258 30.2301 25.694 29.7941C26.13 29.3581 26.375 28.7667 26.375 28.1501H24.825ZM24.05 33.5751C24.2555 33.5751 24.4526 33.6567 24.598 33.8021C24.7433 33.9474 24.825 34.1446 24.825 34.3501H26.375C26.375 33.7335 26.13 33.1421 25.694 32.7061C25.258 32.2701 24.6666 32.0251 24.05 32.0251V33.5751ZM29.475 28.9251C28.8583 28.9251 28.267 29.1701 27.831 29.6061C27.3949 30.0421 27.15 30.6335 27.15 31.2501C27.15 31.8667 27.3949 32.4581 27.831 32.8941C28.267 33.3301 28.8583 33.5751 29.475 33.5751C30.0916 33.5751 30.683 33.3301 31.119 32.8941C31.555 32.4581 31.8 31.8667 31.8 31.2501C31.8 30.6335 31.555 30.0421 31.119 29.6061C30.683 29.1701 30.0916 28.9251 29.475 28.9251Z" fill="white"/>
</svg>
