<svg width="114" height="114" viewBox="0 0 114 114" fill="none" xmlns="http://www.w3.org/2000/svg">
<path d="M104.5 66.5C104.5 84.4132 104.5 93.3703 98.9349 98.9349C93.3703 104.5 84.4132 104.5 66.5 104.5M47.5 104.5C29.5866 104.5 20.63 104.5 15.065 98.9349C9.5 93.3703 9.5 84.4132 9.5 66.5M47.5 9.5C29.5866 9.5 20.63 9.5 15.065 15.065C9.5 20.63 9.5 29.5866 9.5 47.5M66.5 9.5C84.4132 9.5 93.3703 9.5 98.9349 15.065C104.5 20.63 104.5 29.5866 104.5 47.5M26.125 73.625C26.125 69.1467 26.125 66.9075 27.5162 65.5163C28.9075 64.125 31.1467 64.125 35.625 64.125H40.375C44.8533 64.125 47.0925 64.125 48.4837 65.5163C49.875 66.9075 49.875 69.1467 49.875 73.625V78.375C49.875 82.8533 49.875 85.0924 48.4837 86.4837C47.0925 87.875 44.8533 87.875 40.375 87.875C33.6575 87.875 30.2987 87.875 28.2119 85.7883C26.125 83.7012 26.125 80.3424 26.125 73.625ZM26.125 40.375C26.125 33.6575 26.125 30.2987 28.2119 28.2119C30.2987 26.125 33.6575 26.125 40.375 26.125C44.8533 26.125 47.0925 26.125 48.4837 27.5162C49.875 28.9075 49.875 31.1467 49.875 35.625V40.375C49.875 44.8533 49.875 47.0925 48.4837 48.4837C47.0925 49.875 44.8533 49.875 40.375 49.875H35.625C31.1467 49.875 28.9075 49.875 27.5162 48.4837C26.125 47.0925 26.125 44.8533 26.125 40.375ZM64.125 73.625C64.125 69.1467 64.125 66.9075 65.5163 65.5163C66.9075 64.125 69.1467 64.125 73.625 64.125H78.375C82.8533 64.125 85.0924 64.125 86.4837 65.5163C87.875 66.9075 87.875 69.1467 87.875 73.625C87.875 80.3424 87.875 83.7012 85.7883 85.7883C83.7012 87.875 80.3424 87.875 73.625 87.875C69.1467 87.875 66.9075 87.875 65.5163 86.4837C64.125 85.0924 64.125 82.8533 64.125 78.375V73.625ZM64.125 35.625C64.125 31.1467 64.125 28.9075 65.5163 27.5162C66.9075 26.125 69.1467 26.125 73.625 26.125C80.3424 26.125 83.7012 26.125 85.7883 28.2119C87.875 30.2987 87.875 33.6575 87.875 40.375C87.875 44.8533 87.875 47.0925 86.4837 48.4837C85.0924 49.875 82.8533 49.875 78.375 49.875H73.625C69.1467 49.875 66.9075 49.875 65.5163 48.4837C64.125 47.0925 64.125 44.8533 64.125 40.375V35.625Z" stroke="white" stroke-width="7" stroke-linecap="round"/>
</svg>
