<svg width="699" height="733" viewBox="0 0 699 733" fill="none" xmlns="http://www.w3.org/2000/svg">
<g clip-path="url(#clip0_14_6)">
<path d="M100 233H300V33H100V233ZM133.333 66.3333H266.667V199.667H133.333V66.3333ZM166.667 99.6667H233.333V166.333H166.667V99.6667ZM500 233H700V33H500V233ZM533.333 66.3333H666.667V199.667H533.333V66.3333ZM566.667 99.6667H633.333V166.333H566.667V99.6667ZM100 633H300V433H100V633ZM133.333 466.333H266.667V599.667H133.333V466.333ZM166.667 499.667H233.333V566.333H166.667V499.667ZM666.667 566.333H700V633H633.333V533H666.667V566.333ZM666.667 466.333H700V499.667H666.667V466.333ZM666.667 433V466.333H633.333V433H666.667ZM333.333 499.667H366.667V633H333.333V499.667ZM200 266.333V333H133.333V299.667H100V266.333H200ZM333.333 166.333H366.667V199.667H333.333V166.333ZM433.333 66.3333V133H400V33H466.667V66.3333H433.333ZM333.333 66.3333H366.667V99.6667H333.333V66.3333ZM666.667 333H700V399.667H633.333V366.333H666.667V333ZM633.333 266.333V299.667H566.667V366.333H500V333H533.333V266.333H633.333ZM400 399.667H366.667V366.333H333.333V333H400V399.667ZM600 466.333H633.333V499.667H600V466.333ZM666.667 299.667V333H633.333V299.667H666.667ZM366.667 399.667V433H333.333V399.667H366.667ZM566.667 566.333H600V633H533.333V566.333H566.667ZM466.667 566.333H500V599.667H466.667V633H400V599.667H433.333V566.333H466.667ZM466.667 533V499.667H533.333V533H466.667ZM466.667 366.333H500V466.333H466.667V499.667H433.333V533H400V466.333H366.667V433H466.667V399.667H433.333V366.333H466.667ZM166.667 366.333V399.667H133.333V366.333H166.667ZM566.667 499.667H533.333V466.333H566.667V499.667ZM600 433H533.333V399.667H600V433ZM266.667 266.333H300V299.667H266.667V333H300V399.667H266.667V366.333H233.333V399.667H200V333H233.333V266.333H266.667ZM366.667 266.333V199.667H466.667V299.667H400V266.333H433.333V233H400V266.333H366.667ZM366.667 133H400V166.333H366.667V133ZM333.333 266.333H366.667V299.667H333.333V266.333ZM433.333 166.333V133H466.667V166.333H433.333Z" fill="white"/>
</g>
<defs>
<clipPath id="clip0_14_6">
<rect width="800" height="800" fill="white" transform="translate(0 -67)"/>
</clipPath>
</defs>
</svg>
