<svg width="45" height="45" viewBox="0 0 45 45" fill="none" xmlns="http://www.w3.org/2000/svg">
<rect width="45" height="45" rx="22.5" fill="#00FF55"/>
<path fill-rule="evenodd" clip-rule="evenodd" d="M33.3629 19.7356C33.2876 19.7321 33.2122 19.7308 33.1369 19.7317H29.9917C27.4187 19.7317 25.2151 21.7739 25.2151 24.4373C25.2151 27.1007 27.4187 29.1428 29.993 29.1428H33.1356C33.2148 29.1437 33.2902 29.1419 33.3616 29.1376C33.8925 29.1032 34.3929 28.8772 34.7697 28.5016C35.1465 28.1259 35.3741 27.6263 35.4102 27.0955C35.4154 27.0193 35.4154 26.9379 35.4154 26.863V22.0115C35.4154 21.9366 35.4154 21.8552 35.4102 21.779C35.3741 21.2484 35.1467 20.749 34.7702 20.3734C34.3936 19.9978 33.8936 19.7716 33.3629 19.7369M29.7165 25.6928C30.3792 25.6928 30.9178 25.1322 30.9178 24.4386C30.9178 23.7449 30.3792 23.1844 29.7165 23.1844C29.0539 23.1844 28.5166 23.7449 28.5166 24.4386C28.5166 25.1322 29.0526 25.6928 29.7165 25.6928Z" fill="white"/>
<path fill-rule="evenodd" clip-rule="evenodd" d="M33.1356 31.0252C33.1788 31.0236 33.2219 31.0323 33.2612 31.0505C33.3005 31.0686 33.335 31.0958 33.3619 31.1297C33.3888 31.1636 33.4073 31.2034 33.416 31.2458C33.4247 31.2883 33.4233 31.3321 33.412 31.3739C33.1614 32.2677 32.7649 33.0298 32.1281 33.6705C31.1968 34.6095 30.0149 35.0267 28.5553 35.2244C27.1371 35.4168 25.3261 35.4168 23.0373 35.4168H20.4062C18.1186 35.4168 16.3064 35.4168 14.8882 35.2244C13.4286 35.0267 12.2467 34.6095 11.3154 33.6705C10.3841 32.734 9.97081 31.5418 9.77448 30.0719C9.58331 28.6407 9.58331 26.8143 9.58331 24.5087V24.3666C9.58331 22.061 9.58331 20.2333 9.77448 18.8047C9.97081 17.3335 10.3841 16.1452 11.3141 15.2035C12.2454 14.2658 13.4273 13.8473 14.8869 13.651C16.3064 13.4585 18.1186 13.4585 20.4062 13.4585H23.0373C25.3249 13.4585 27.1371 13.4585 28.5553 13.651C30.0149 13.8486 31.1968 14.2658 32.1281 15.2035C32.7649 15.8455 33.1614 16.6076 33.412 17.5027C33.4231 17.5444 33.4243 17.5881 33.4155 17.6304C33.4067 17.6726 33.3881 17.7122 33.3612 17.746C33.3343 17.7798 33.2999 17.8068 33.2608 17.8249C33.2216 17.843 33.1787 17.8516 33.1356 17.8502H29.9929C26.4615 17.8502 23.3499 20.6621 23.3499 24.4377C23.3499 28.2132 26.4628 31.0252 29.9942 31.0252H33.1356ZM14.2514 18.4779C14.1284 18.4784 14.0067 18.5031 13.8933 18.5507C13.7799 18.5982 13.677 18.6676 13.5904 18.7549C13.5038 18.8423 13.4352 18.9458 13.3886 19.0596C13.342 19.1734 13.3183 19.2953 13.3188 19.4182C13.3188 19.9388 13.736 20.3599 14.2514 20.3599H19.2321C19.7487 20.3599 20.1659 19.9388 20.1659 19.4182C20.1666 19.1698 20.0687 18.9312 19.8936 18.7549C19.7185 18.5785 19.4805 18.4789 19.2321 18.4779H14.2514Z" fill="white"/>
<path d="M17.0453 12.1978L19.5744 10.3339C20.2344 9.8462 21.0335 9.58301 21.8542 9.58301C22.6749 9.58301 23.4739 9.8462 24.134 10.3339L26.6772 12.2081C25.6129 12.1668 24.4246 12.1668 23.1239 12.1668H20.321C19.13 12.1668 18.036 12.1668 17.0453 12.1978Z" fill="white"/>
</svg>
