<svg width="104" height="104" viewBox="0 0 104 104" fill="none" xmlns="http://www.w3.org/2000/svg">
<path d="M42.5 99.5C24.5878 99.5 15.6292 99.5 10.067 93.933C4.50475 88.366 4.5 84.1622 4.5 66.25M99.5 66.25C99.5 84.1622 99.5 88.3707 93.933 93.933C88.366 99.4952 79.4122 99.5 61.5 99.5M61.5 4.5C79.4122 4.5 88.3707 4.5 93.933 10.067C99.4952 15.634 99.5 19.8378 99.5 37.75M42.5 4.5C24.5878 4.5 15.6292 4.5 10.067 10.067C4.50475 15.634 4.5 19.8378 4.5 37.75M4.5 52H99.5" stroke="white" stroke-width="8" stroke-linecap="round"/>
</svg>
