<svg width="45" height="45" viewBox="0 0 45 45" fill="none" xmlns="http://www.w3.org/2000/svg">
<rect width="45" height="45" rx="22.5" fill="#1AF530"/>
<path d="M30.25 21.2083H14.75V14.75H30.25M28.3125 28.9583C27.7987 28.9583 27.3059 28.7542 26.9425 28.3908C26.5791 28.0275 26.375 27.5347 26.375 27.0208C26.375 26.507 26.5791 26.0141 26.9425 25.6508C27.3059 25.2874 27.7987 25.0833 28.3125 25.0833C28.8264 25.0833 29.3192 25.2874 29.6825 25.6508C30.0459 26.0141 30.25 26.507 30.25 27.0208C30.25 27.5347 30.0459 28.0275 29.6825 28.3908C29.3192 28.7542 28.8264 28.9583 28.3125 28.9583ZM16.6875 28.9583C16.1737 28.9583 15.6809 28.7542 15.3175 28.3908C14.9541 28.0275 14.75 27.5347 14.75 27.0208C14.75 26.507 14.9541 26.0141 15.3175 25.6508C15.6809 25.2874 16.1737 25.0833 16.6875 25.0833C17.2014 25.0833 17.6942 25.2874 18.0575 25.6508C18.4209 26.0141 18.625 26.507 18.625 27.0208C18.625 27.5347 18.4209 28.0275 18.0575 28.3908C17.6942 28.7542 17.2014 28.9583 16.6875 28.9583ZM12.1667 27.6666C12.1667 28.8033 12.6704 29.8237 13.4584 30.5341V32.8333C13.4584 33.1759 13.5944 33.5044 13.8367 33.7467C14.0789 33.9889 14.4074 34.125 14.75 34.125H16.0417C16.3843 34.125 16.7128 33.9889 16.955 33.7467C17.1973 33.5044 17.3334 33.1759 17.3334 32.8333V31.5416H27.6667V32.8333C27.6667 33.1759 27.8028 33.5044 28.045 33.7467C28.2872 33.9889 28.6158 34.125 28.9584 34.125H30.25C30.5926 34.125 30.9211 33.9889 31.1634 33.7467C31.4056 33.5044 31.5417 33.1759 31.5417 32.8333V30.5341C32.3296 29.8237 32.8334 28.8033 32.8334 27.6666V14.75C32.8334 10.2291 28.2092 9.58331 22.5 9.58331C16.7909 9.58331 12.1667 10.2291 12.1667 14.75V27.6666Z" fill="white"/>
</svg>
